G04 #@! TF.GenerationSoftware,KiCad,Pcbnew,8.0.6+dfsg-1*
G04 #@! TF.CreationDate,2024-11-21T19:14:49-08:00*
G04 #@! TF.ProjectId,digits,64696769-7473-42e6-9b69-6361645f7063,rev?*
G04 #@! TF.SameCoordinates,Original*
G04 #@! TF.FileFunction,Paste,Top*
G04 #@! TF.FilePolarity,Positive*
%FSLAX46Y46*%
G04 Gerber Fmt 4.6, Leading zero omitted, Abs format (unit mm)*
G04 Created by KiCad (PCBNEW 8.0.6+dfsg-1) date 2024-11-21 19:14:49*
%MOMM*%
%LPD*%
G01*
G04 APERTURE LIST*
G04 Aperture macros list*
%AMRoundRect*
0 Rectangle with rounded corners*
0 $1 Rounding radius*
0 $2 $3 $4 $5 $6 $7 $8 $9 X,Y pos of 4 corners*
0 Add a 4 corners polygon primitive as box body*
4,1,4,$2,$3,$4,$5,$6,$7,$8,$9,$2,$3,0*
0 Add four circle primitives for the rounded corners*
1,1,$1+$1,$2,$3*
1,1,$1+$1,$4,$5*
1,1,$1+$1,$6,$7*
1,1,$1+$1,$8,$9*
0 Add four rect primitives between the rounded corners*
20,1,$1+$1,$2,$3,$4,$5,0*
20,1,$1+$1,$4,$5,$6,$7,0*
20,1,$1+$1,$6,$7,$8,$9,0*
20,1,$1+$1,$8,$9,$2,$3,0*%
G04 Aperture macros list end*
%ADD10RoundRect,0.237500X-0.250000X-0.237500X0.250000X-0.237500X0.250000X0.237500X-0.250000X0.237500X0*%
%ADD11RoundRect,0.218750X0.218750X0.256250X-0.218750X0.256250X-0.218750X-0.256250X0.218750X-0.256250X0*%
%ADD12RoundRect,0.237500X0.237500X-0.250000X0.237500X0.250000X-0.237500X0.250000X-0.237500X-0.250000X0*%
%ADD13RoundRect,0.237500X-0.237500X0.250000X-0.237500X-0.250000X0.237500X-0.250000X0.237500X0.250000X0*%
%ADD14RoundRect,0.218750X-0.218750X-0.256250X0.218750X-0.256250X0.218750X0.256250X-0.218750X0.256250X0*%
%ADD15RoundRect,0.237500X0.250000X0.237500X-0.250000X0.237500X-0.250000X-0.237500X0.250000X-0.237500X0*%
%ADD16RoundRect,0.218750X0.256250X-0.218750X0.256250X0.218750X-0.256250X0.218750X-0.256250X-0.218750X0*%
%ADD17RoundRect,0.150000X0.150000X-0.850000X0.150000X0.850000X-0.150000X0.850000X-0.150000X-0.850000X0*%
%ADD18RoundRect,0.218750X-0.256250X0.218750X-0.256250X-0.218750X0.256250X-0.218750X0.256250X0.218750X0*%
%ADD19RoundRect,0.225000X0.250000X-0.225000X0.250000X0.225000X-0.250000X0.225000X-0.250000X-0.225000X0*%
%ADD20RoundRect,0.150000X0.150000X-0.587500X0.150000X0.587500X-0.150000X0.587500X-0.150000X-0.587500X0*%
%ADD21RoundRect,0.150000X-0.150000X0.587500X-0.150000X-0.587500X0.150000X-0.587500X0.150000X0.587500X0*%
G04 APERTURE END LIST*
D10*
G04 #@! TO.C,R40*
X176587500Y-113500000D03*
X178412500Y-113500000D03*
G04 #@! TD*
D11*
G04 #@! TO.C,D61*
X154787500Y-119500000D03*
X153212500Y-119500000D03*
G04 #@! TD*
D12*
G04 #@! TO.C,R97*
X135925000Y-72912500D03*
X135925000Y-71087500D03*
G04 #@! TD*
D13*
G04 #@! TO.C,R36*
X176500000Y-121587500D03*
X176500000Y-123412500D03*
G04 #@! TD*
D14*
G04 #@! TO.C,D9*
X161212500Y-38500000D03*
X162787500Y-38500000D03*
G04 #@! TD*
D12*
G04 #@! TO.C,R54*
X157500000Y-115912500D03*
X157500000Y-114087500D03*
G04 #@! TD*
D15*
G04 #@! TO.C,R75*
X116912500Y-56000000D03*
X115087500Y-56000000D03*
G04 #@! TD*
D14*
G04 #@! TO.C,D19*
X147712500Y-43000000D03*
X149287500Y-43000000D03*
G04 #@! TD*
D11*
G04 #@! TO.C,D129*
X132212500Y-81000000D03*
X130637500Y-81000000D03*
G04 #@! TD*
D12*
G04 #@! TO.C,R91*
X159000000Y-64912500D03*
X159000000Y-63087500D03*
G04 #@! TD*
G04 #@! TO.C,R51*
X134500000Y-115912500D03*
X134500000Y-114087500D03*
G04 #@! TD*
D11*
G04 #@! TO.C,D134*
X154712500Y-81000000D03*
X153137500Y-81000000D03*
G04 #@! TD*
D16*
G04 #@! TO.C,D84*
X129500000Y-96575000D03*
X129500000Y-95000000D03*
G04 #@! TD*
D11*
G04 #@! TO.C,D130*
X136712500Y-81000000D03*
X135137500Y-81000000D03*
G04 #@! TD*
G04 #@! TO.C,D131*
X141000000Y-81000000D03*
X139425000Y-81000000D03*
G04 #@! TD*
G04 #@! TO.C,D77*
X136787500Y-119500000D03*
X135212500Y-119500000D03*
G04 #@! TD*
D16*
G04 #@! TO.C,D105*
X129500000Y-57787500D03*
X129500000Y-56212500D03*
G04 #@! TD*
D13*
G04 #@! TO.C,R6*
X151500000Y-46587500D03*
X151500000Y-48412500D03*
G04 #@! TD*
G04 #@! TO.C,R77*
X117000000Y-78587500D03*
X117000000Y-80412500D03*
G04 #@! TD*
D14*
G04 #@! TO.C,D126*
X144137500Y-85500000D03*
X145712500Y-85500000D03*
G04 #@! TD*
D12*
G04 #@! TO.C,R49*
X135000000Y-107412500D03*
X135000000Y-105587500D03*
G04 #@! TD*
D17*
G04 #@! TO.C,U1*
X138805000Y-99931691D03*
X140075000Y-99931691D03*
X141345000Y-99931691D03*
X142615000Y-99931691D03*
X143885000Y-99931691D03*
X145155000Y-99931691D03*
X146425000Y-99931691D03*
X147695000Y-99931691D03*
X147695000Y-94931691D03*
X146425000Y-94931691D03*
X145155000Y-94931691D03*
X143885000Y-94931691D03*
X142615000Y-94931691D03*
X141345000Y-94931691D03*
X140075000Y-94931691D03*
X138805000Y-94931691D03*
G04 #@! TD*
D12*
G04 #@! TO.C,R72*
X117000000Y-40912500D03*
X117000000Y-39087500D03*
G04 #@! TD*
D14*
G04 #@! TO.C,D10*
X156712500Y-38500000D03*
X158287500Y-38500000D03*
G04 #@! TD*
D18*
G04 #@! TO.C,D117*
X120500000Y-69712500D03*
X120500000Y-71287500D03*
G04 #@! TD*
D13*
G04 #@! TO.C,R11*
X144500000Y-46587500D03*
X144500000Y-48412500D03*
G04 #@! TD*
D12*
G04 #@! TO.C,R45*
X153000000Y-115912500D03*
X153000000Y-114087500D03*
G04 #@! TD*
G04 #@! TO.C,R52*
X140500000Y-115912500D03*
X140500000Y-114087500D03*
G04 #@! TD*
D18*
G04 #@! TO.C,D44*
X164000000Y-108212500D03*
X164000000Y-109787500D03*
G04 #@! TD*
G04 #@! TO.C,D114*
X125000000Y-51712500D03*
X125000000Y-53287500D03*
G04 #@! TD*
D16*
G04 #@! TO.C,D34*
X168500000Y-67287500D03*
X168500000Y-65712500D03*
G04 #@! TD*
D14*
G04 #@! TO.C,D18*
X152425000Y-43000000D03*
X154000000Y-43000000D03*
G04 #@! TD*
D13*
G04 #@! TO.C,R21*
X176500000Y-78087500D03*
X176500000Y-79912500D03*
G04 #@! TD*
D18*
G04 #@! TO.C,D89*
X125000000Y-117500000D03*
X125000000Y-119075000D03*
G04 #@! TD*
D13*
G04 #@! TO.C,R8*
X156500000Y-54587500D03*
X156500000Y-56412500D03*
G04 #@! TD*
D18*
G04 #@! TO.C,D43*
X164000000Y-112500000D03*
X164000000Y-114075000D03*
G04 #@! TD*
D15*
G04 #@! TO.C,R70*
X116912500Y-104787500D03*
X115087500Y-104787500D03*
G04 #@! TD*
D12*
G04 #@! TO.C,R100*
X146195000Y-92344191D03*
X146195000Y-90519191D03*
G04 #@! TD*
D15*
G04 #@! TO.C,R65*
X116912500Y-115287500D03*
X115087500Y-115287500D03*
G04 #@! TD*
D18*
G04 #@! TO.C,D112*
X125000000Y-60712500D03*
X125000000Y-62287500D03*
G04 #@! TD*
D14*
G04 #@! TO.C,D16*
X130212500Y-38500000D03*
X131787500Y-38500000D03*
G04 #@! TD*
D19*
G04 #@! TO.C,C2*
X150490000Y-91745000D03*
X150490000Y-90195000D03*
G04 #@! TD*
D18*
G04 #@! TO.C,D91*
X125000000Y-108712500D03*
X125000000Y-110287500D03*
G04 #@! TD*
D11*
G04 #@! TO.C,D69*
X132287500Y-124000000D03*
X130712500Y-124000000D03*
G04 #@! TD*
D15*
G04 #@! TO.C,R61*
X116912500Y-99287500D03*
X115087500Y-99287500D03*
G04 #@! TD*
G04 #@! TO.C,R60*
X116912500Y-90787500D03*
X115087500Y-90787500D03*
G04 #@! TD*
D13*
G04 #@! TO.C,R35*
X178500000Y-121587500D03*
X178500000Y-123412500D03*
G04 #@! TD*
D11*
G04 #@! TO.C,D62*
X159075000Y-119500000D03*
X157500000Y-119500000D03*
G04 #@! TD*
D15*
G04 #@! TO.C,R83*
X116912500Y-70500000D03*
X115087500Y-70500000D03*
G04 #@! TD*
D12*
G04 #@! TO.C,R29*
X176500000Y-83912500D03*
X176500000Y-82087500D03*
G04 #@! TD*
D10*
G04 #@! TO.C,R28*
X176587500Y-57500000D03*
X178412500Y-57500000D03*
G04 #@! TD*
D12*
G04 #@! TO.C,R92*
X157000000Y-64912500D03*
X157000000Y-63087500D03*
G04 #@! TD*
D11*
G04 #@! TO.C,D132*
X145712500Y-81000000D03*
X144137500Y-81000000D03*
G04 #@! TD*
D14*
G04 #@! TO.C,D20*
X143137500Y-43000000D03*
X144712500Y-43000000D03*
G04 #@! TD*
D10*
G04 #@! TO.C,R32*
X176587500Y-115000000D03*
X178412500Y-115000000D03*
G04 #@! TD*
D20*
G04 #@! TO.C,Q1*
X133550000Y-52437500D03*
X135450000Y-52437500D03*
X134500000Y-50562500D03*
G04 #@! TD*
D12*
G04 #@! TO.C,R30*
X178500000Y-83912500D03*
X178500000Y-82087500D03*
G04 #@! TD*
D16*
G04 #@! TO.C,D55*
X168500000Y-114075000D03*
X168500000Y-112500000D03*
G04 #@! TD*
D11*
G04 #@! TO.C,D6*
X149287500Y-34000000D03*
X147712500Y-34000000D03*
G04 #@! TD*
D12*
G04 #@! TO.C,R44*
X157500000Y-107412500D03*
X157500000Y-105587500D03*
G04 #@! TD*
D20*
G04 #@! TO.C,Q2*
X156550000Y-52437500D03*
X158450000Y-52437500D03*
X157500000Y-50562500D03*
G04 #@! TD*
D12*
G04 #@! TO.C,R87*
X152925000Y-72912500D03*
X152925000Y-71087500D03*
G04 #@! TD*
D11*
G04 #@! TO.C,D137*
X136712500Y-76500000D03*
X135137500Y-76500000D03*
G04 #@! TD*
D12*
G04 #@! TO.C,R56*
X145000000Y-115912500D03*
X145000000Y-114087500D03*
G04 #@! TD*
D18*
G04 #@! TO.C,D25*
X164000000Y-61212500D03*
X164000000Y-62787500D03*
G04 #@! TD*
D11*
G04 #@! TO.C,D74*
X154787500Y-124000000D03*
X153212500Y-124000000D03*
G04 #@! TD*
D16*
G04 #@! TO.C,D50*
X168500000Y-91787500D03*
X168500000Y-90212500D03*
G04 #@! TD*
G04 #@! TO.C,D104*
X129500000Y-53287500D03*
X129500000Y-51712500D03*
G04 #@! TD*
D21*
G04 #@! TO.C,Q9*
X116950000Y-86562500D03*
X115050000Y-86562500D03*
X116000000Y-88437500D03*
G04 #@! TD*
D11*
G04 #@! TO.C,D78*
X141075000Y-119500000D03*
X139500000Y-119500000D03*
G04 #@! TD*
D10*
G04 #@! TO.C,R27*
X176587500Y-48500000D03*
X178412500Y-48500000D03*
G04 #@! TD*
D12*
G04 #@! TO.C,R95*
X148925000Y-72912500D03*
X148925000Y-71087500D03*
G04 #@! TD*
D15*
G04 #@! TO.C,R66*
X116912500Y-109287500D03*
X115087500Y-109287500D03*
G04 #@! TD*
D10*
G04 #@! TO.C,R33*
X176587500Y-106500000D03*
X178412500Y-106500000D03*
G04 #@! TD*
D16*
G04 #@! TO.C,D37*
X173000000Y-49287500D03*
X173000000Y-47712500D03*
G04 #@! TD*
G04 #@! TO.C,D31*
X168500000Y-53575000D03*
X168500000Y-52000000D03*
G04 #@! TD*
D14*
G04 #@! TO.C,D125*
X148637500Y-85500000D03*
X150212500Y-85500000D03*
G04 #@! TD*
D16*
G04 #@! TO.C,D39*
X173000000Y-58287500D03*
X173000000Y-56712500D03*
G04 #@! TD*
G04 #@! TO.C,D86*
X129500000Y-105575000D03*
X129500000Y-104000000D03*
G04 #@! TD*
D11*
G04 #@! TO.C,D133*
X150287500Y-81000000D03*
X148712500Y-81000000D03*
G04 #@! TD*
D13*
G04 #@! TO.C,R12*
X136000000Y-46587500D03*
X136000000Y-48412500D03*
G04 #@! TD*
D16*
G04 #@! TO.C,D38*
X173000000Y-53575000D03*
X173000000Y-52000000D03*
G04 #@! TD*
D18*
G04 #@! TO.C,D47*
X164000000Y-94500000D03*
X164000000Y-96075000D03*
G04 #@! TD*
D15*
G04 #@! TO.C,R76*
X116912500Y-64500000D03*
X115087500Y-64500000D03*
G04 #@! TD*
D18*
G04 #@! TO.C,D110*
X125000000Y-69712500D03*
X125000000Y-71287500D03*
G04 #@! TD*
D13*
G04 #@! TO.C,R10*
X153000000Y-46587500D03*
X153000000Y-48412500D03*
G04 #@! TD*
D14*
G04 #@! TO.C,D13*
X143137500Y-38500000D03*
X144712500Y-38500000D03*
G04 #@! TD*
D12*
G04 #@! TO.C,R101*
X142695000Y-92344191D03*
X142695000Y-90519191D03*
G04 #@! TD*
D18*
G04 #@! TO.C,D101*
X120500000Y-51712500D03*
X120500000Y-53287500D03*
G04 #@! TD*
D14*
G04 #@! TO.C,D67*
X139500000Y-128500000D03*
X141075000Y-128500000D03*
G04 #@! TD*
D20*
G04 #@! TO.C,Q4*
X176550000Y-75937500D03*
X178450000Y-75937500D03*
X177500000Y-74062500D03*
G04 #@! TD*
D14*
G04 #@! TO.C,D12*
X147712500Y-38500000D03*
X149287500Y-38500000D03*
G04 #@! TD*
D13*
G04 #@! TO.C,R5*
X143000000Y-46587500D03*
X143000000Y-48412500D03*
G04 #@! TD*
D16*
G04 #@! TO.C,D59*
X173000000Y-100787500D03*
X173000000Y-99212500D03*
G04 #@! TD*
G04 #@! TO.C,D53*
X168500000Y-105362500D03*
X168500000Y-103787500D03*
G04 #@! TD*
G04 #@! TO.C,D58*
X173000000Y-96075000D03*
X173000000Y-94500000D03*
G04 #@! TD*
G04 #@! TO.C,D42*
X173000000Y-114075000D03*
X173000000Y-112500000D03*
G04 #@! TD*
D18*
G04 #@! TO.C,D27*
X164000000Y-52000000D03*
X164000000Y-53575000D03*
G04 #@! TD*
D11*
G04 #@! TO.C,D5*
X144787500Y-34000000D03*
X143212500Y-34000000D03*
G04 #@! TD*
D12*
G04 #@! TO.C,R46*
X159000000Y-115912500D03*
X159000000Y-114087500D03*
G04 #@! TD*
D18*
G04 #@! TO.C,D119*
X120500000Y-60712500D03*
X120500000Y-62287500D03*
G04 #@! TD*
D11*
G04 #@! TO.C,D3*
X136000000Y-34000000D03*
X134425000Y-34000000D03*
G04 #@! TD*
D16*
G04 #@! TO.C,D57*
X173000000Y-91787500D03*
X173000000Y-90212500D03*
G04 #@! TD*
D15*
G04 #@! TO.C,R79*
X116912500Y-72000000D03*
X115087500Y-72000000D03*
G04 #@! TD*
D18*
G04 #@! TO.C,D100*
X120500000Y-99425000D03*
X120500000Y-101000000D03*
G04 #@! TD*
G04 #@! TO.C,D120*
X120500000Y-56137500D03*
X120500000Y-57712500D03*
G04 #@! TD*
G04 #@! TO.C,D96*
X125000000Y-86500000D03*
X125000000Y-88075000D03*
G04 #@! TD*
D16*
G04 #@! TO.C,D35*
X168500000Y-71575000D03*
X168500000Y-70000000D03*
G04 #@! TD*
D20*
G04 #@! TO.C,Q10*
X115050000Y-119437500D03*
X116950000Y-119437500D03*
X116000000Y-117562500D03*
G04 #@! TD*
D12*
G04 #@! TO.C,R48*
X142000000Y-115912500D03*
X142000000Y-114087500D03*
G04 #@! TD*
D16*
G04 #@! TO.C,D33*
X168500000Y-62862500D03*
X168500000Y-61287500D03*
G04 #@! TD*
D21*
G04 #@! TO.C,Q7*
X159450000Y-109562500D03*
X157550000Y-109562500D03*
X158500000Y-111437500D03*
G04 #@! TD*
D13*
G04 #@! TO.C,R3*
X140500000Y-46587500D03*
X140500000Y-48412500D03*
G04 #@! TD*
D14*
G04 #@! TO.C,D64*
X153212500Y-128500000D03*
X154787500Y-128500000D03*
G04 #@! TD*
D18*
G04 #@! TO.C,D26*
X164000000Y-56712500D03*
X164000000Y-58287500D03*
G04 #@! TD*
D10*
G04 #@! TO.C,R23*
X176587500Y-47000000D03*
X178412500Y-47000000D03*
G04 #@! TD*
D11*
G04 #@! TO.C,D122*
X159000000Y-76500000D03*
X157425000Y-76500000D03*
G04 #@! TD*
D18*
G04 #@! TO.C,D90*
X125000000Y-113000000D03*
X125000000Y-114575000D03*
G04 #@! TD*
D20*
G04 #@! TO.C,Q6*
X176550000Y-119437500D03*
X178450000Y-119437500D03*
X177500000Y-117562500D03*
G04 #@! TD*
D18*
G04 #@! TO.C,D45*
X164000000Y-103712500D03*
X164000000Y-105287500D03*
G04 #@! TD*
D11*
G04 #@! TO.C,D121*
X154712500Y-76500000D03*
X153137500Y-76500000D03*
G04 #@! TD*
D15*
G04 #@! TO.C,R84*
X116912500Y-61500000D03*
X115087500Y-61500000D03*
G04 #@! TD*
D16*
G04 #@! TO.C,D108*
X129500000Y-71287500D03*
X129500000Y-69712500D03*
G04 #@! TD*
G04 #@! TO.C,D88*
X129500000Y-114575000D03*
X129500000Y-113000000D03*
G04 #@! TD*
D11*
G04 #@! TO.C,D76*
X163287500Y-124000000D03*
X161712500Y-124000000D03*
G04 #@! TD*
D16*
G04 #@! TO.C,D49*
X168500000Y-87287500D03*
X168500000Y-85712500D03*
G04 #@! TD*
D12*
G04 #@! TO.C,R93*
X134425000Y-72912500D03*
X134425000Y-71087500D03*
G04 #@! TD*
D11*
G04 #@! TO.C,D71*
X141075000Y-124000000D03*
X139500000Y-124000000D03*
G04 #@! TD*
G04 #@! TO.C,D138*
X141000000Y-76500000D03*
X139425000Y-76500000D03*
G04 #@! TD*
D12*
G04 #@! TO.C,R55*
X136000000Y-115912500D03*
X136000000Y-114087500D03*
G04 #@! TD*
D14*
G04 #@! TO.C,D63*
X157500000Y-128500000D03*
X159075000Y-128500000D03*
G04 #@! TD*
D16*
G04 #@! TO.C,D51*
X168500000Y-96075000D03*
X168500000Y-94500000D03*
G04 #@! TD*
D18*
G04 #@! TO.C,D102*
X120500000Y-47425000D03*
X120500000Y-49000000D03*
G04 #@! TD*
D10*
G04 #@! TO.C,R18*
X176587500Y-71500000D03*
X178412500Y-71500000D03*
G04 #@! TD*
D21*
G04 #@! TO.C,Q14*
X158950000Y-67062500D03*
X157050000Y-67062500D03*
X158000000Y-68937500D03*
G04 #@! TD*
D10*
G04 #@! TO.C,R42*
X176587500Y-101000000D03*
X178412500Y-101000000D03*
G04 #@! TD*
D12*
G04 #@! TO.C,R58*
X115000000Y-84325000D03*
X115000000Y-82500000D03*
G04 #@! TD*
G04 #@! TO.C,R50*
X137000000Y-107412500D03*
X137000000Y-105587500D03*
G04 #@! TD*
D10*
G04 #@! TO.C,R39*
X176587500Y-105000000D03*
X178412500Y-105000000D03*
G04 #@! TD*
D11*
G04 #@! TO.C,D75*
X159075000Y-124000000D03*
X157500000Y-124000000D03*
G04 #@! TD*
D18*
G04 #@! TO.C,D94*
X125000000Y-95000000D03*
X125000000Y-96575000D03*
G04 #@! TD*
D12*
G04 #@! TO.C,R43*
X159500000Y-107412500D03*
X159500000Y-105587500D03*
G04 #@! TD*
D15*
G04 #@! TO.C,R80*
X116912500Y-66000000D03*
X115087500Y-66000000D03*
G04 #@! TD*
D14*
G04 #@! TO.C,D127*
X139425000Y-85500000D03*
X141000000Y-85500000D03*
G04 #@! TD*
D16*
G04 #@! TO.C,D29*
X168500000Y-44787500D03*
X168500000Y-43212500D03*
G04 #@! TD*
D13*
G04 #@! TO.C,R22*
X178500000Y-78087500D03*
X178500000Y-79912500D03*
G04 #@! TD*
D16*
G04 #@! TO.C,D103*
X129500000Y-49000000D03*
X129500000Y-47425000D03*
G04 #@! TD*
D12*
G04 #@! TO.C,R57*
X117000000Y-84325000D03*
X117000000Y-82500000D03*
G04 #@! TD*
D10*
G04 #@! TO.C,R38*
X176587500Y-96500000D03*
X178412500Y-96500000D03*
G04 #@! TD*
D12*
G04 #@! TO.C,R96*
X157425000Y-72912500D03*
X157425000Y-71087500D03*
G04 #@! TD*
D10*
G04 #@! TO.C,R25*
X176587500Y-61500000D03*
X178412500Y-61500000D03*
G04 #@! TD*
D18*
G04 #@! TO.C,D93*
X125000000Y-99425000D03*
X125000000Y-101000000D03*
G04 #@! TD*
D10*
G04 #@! TO.C,R19*
X176587500Y-63000000D03*
X178412500Y-63000000D03*
G04 #@! TD*
D11*
G04 #@! TO.C,D72*
X145787500Y-124000000D03*
X144212500Y-124000000D03*
G04 #@! TD*
D18*
G04 #@! TO.C,D95*
X125000000Y-90712500D03*
X125000000Y-92287500D03*
G04 #@! TD*
D13*
G04 #@! TO.C,R7*
X158500000Y-54587500D03*
X158500000Y-56412500D03*
G04 #@! TD*
D11*
G04 #@! TO.C,D73*
X150362500Y-124000000D03*
X148787500Y-124000000D03*
G04 #@! TD*
D21*
G04 #@! TO.C,Q8*
X136950000Y-109562500D03*
X135050000Y-109562500D03*
X136000000Y-111437500D03*
G04 #@! TD*
D16*
G04 #@! TO.C,D52*
X168500000Y-100787500D03*
X168500000Y-99212500D03*
G04 #@! TD*
D11*
G04 #@! TO.C,D4*
X140287500Y-34000000D03*
X138712500Y-34000000D03*
G04 #@! TD*
D18*
G04 #@! TO.C,D99*
X120500000Y-104000000D03*
X120500000Y-105575000D03*
G04 #@! TD*
D15*
G04 #@! TO.C,R62*
X116912500Y-107787500D03*
X115087500Y-107787500D03*
G04 #@! TD*
G04 #@! TO.C,R59*
X116912500Y-96787500D03*
X115087500Y-96787500D03*
G04 #@! TD*
D18*
G04 #@! TO.C,D81*
X120500000Y-95000000D03*
X120500000Y-96575000D03*
G04 #@! TD*
D16*
G04 #@! TO.C,D40*
X173000000Y-62862500D03*
X173000000Y-61287500D03*
G04 #@! TD*
D15*
G04 #@! TO.C,R82*
X116912500Y-49000000D03*
X115087500Y-49000000D03*
G04 #@! TD*
G04 #@! TO.C,R73*
X116912500Y-53500000D03*
X115087500Y-53500000D03*
G04 #@! TD*
D11*
G04 #@! TO.C,D140*
X150287500Y-76500000D03*
X148712500Y-76500000D03*
G04 #@! TD*
D12*
G04 #@! TO.C,R94*
X140425000Y-72912500D03*
X140425000Y-71087500D03*
G04 #@! TD*
D13*
G04 #@! TO.C,R14*
X148500000Y-46587500D03*
X148500000Y-48412500D03*
G04 #@! TD*
D18*
G04 #@! TO.C,D109*
X125000000Y-74212500D03*
X125000000Y-75787500D03*
G04 #@! TD*
D16*
G04 #@! TO.C,D106*
X129500000Y-62287500D03*
X129500000Y-60712500D03*
G04 #@! TD*
D12*
G04 #@! TO.C,R71*
X115000000Y-40912500D03*
X115000000Y-39087500D03*
G04 #@! TD*
D18*
G04 #@! TO.C,D82*
X120500000Y-90712500D03*
X120500000Y-92287500D03*
G04 #@! TD*
G04 #@! TO.C,D28*
X164000000Y-47712500D03*
X164000000Y-49287500D03*
G04 #@! TD*
G04 #@! TO.C,D111*
X125000000Y-65425000D03*
X125000000Y-67000000D03*
G04 #@! TD*
D19*
G04 #@! TO.C,C1*
X138695000Y-92481691D03*
X138695000Y-90931691D03*
G04 #@! TD*
D21*
G04 #@! TO.C,Q11*
X116950000Y-43062500D03*
X115050000Y-43062500D03*
X116000000Y-44937500D03*
G04 #@! TD*
D10*
G04 #@! TO.C,R41*
X176587500Y-92000000D03*
X178412500Y-92000000D03*
G04 #@! TD*
D21*
G04 #@! TO.C,Q3*
X178450000Y-42562500D03*
X176550000Y-42562500D03*
X177500000Y-44437500D03*
G04 #@! TD*
D12*
G04 #@! TO.C,R47*
X150500000Y-115912500D03*
X150500000Y-114087500D03*
G04 #@! TD*
D16*
G04 #@! TO.C,D41*
X173000000Y-109787500D03*
X173000000Y-108212500D03*
G04 #@! TD*
G04 #@! TO.C,D60*
X173000000Y-105362500D03*
X173000000Y-103787500D03*
G04 #@! TD*
D11*
G04 #@! TO.C,D8*
X158287500Y-34000000D03*
X156712500Y-34000000D03*
G04 #@! TD*
D10*
G04 #@! TO.C,R34*
X176587500Y-98000000D03*
X178412500Y-98000000D03*
G04 #@! TD*
D15*
G04 #@! TO.C,R69*
X116912500Y-113787500D03*
X115087500Y-113787500D03*
G04 #@! TD*
D16*
G04 #@! TO.C,D30*
X168500000Y-49287500D03*
X168500000Y-47712500D03*
G04 #@! TD*
D18*
G04 #@! TO.C,D98*
X120500000Y-108712500D03*
X120500000Y-110287500D03*
G04 #@! TD*
D14*
G04 #@! TO.C,D14*
X138712500Y-38500000D03*
X140287500Y-38500000D03*
G04 #@! TD*
D11*
G04 #@! TO.C,D7*
X154000000Y-34000000D03*
X152425000Y-34000000D03*
G04 #@! TD*
D21*
G04 #@! TO.C,Q5*
X178450000Y-86062500D03*
X176550000Y-86062500D03*
X177500000Y-87937500D03*
G04 #@! TD*
D14*
G04 #@! TO.C,D65*
X148712500Y-128500000D03*
X150287500Y-128500000D03*
G04 #@! TD*
D16*
G04 #@! TO.C,D54*
X168500000Y-109787500D03*
X168500000Y-108212500D03*
G04 #@! TD*
D14*
G04 #@! TO.C,D128*
X135137500Y-85500000D03*
X136712500Y-85500000D03*
G04 #@! TD*
G04 #@! TO.C,D66*
X144212500Y-128500000D03*
X145787500Y-128500000D03*
G04 #@! TD*
D15*
G04 #@! TO.C,R67*
X116912500Y-100787500D03*
X115087500Y-100787500D03*
G04 #@! TD*
D11*
G04 #@! TO.C,D79*
X145787500Y-119500000D03*
X144212500Y-119500000D03*
G04 #@! TD*
G04 #@! TO.C,D70*
X136787500Y-124000000D03*
X135212500Y-124000000D03*
G04 #@! TD*
D10*
G04 #@! TO.C,R20*
X176587500Y-54500000D03*
X178412500Y-54500000D03*
G04 #@! TD*
G04 #@! TO.C,R17*
X176587500Y-65500000D03*
X178412500Y-65500000D03*
G04 #@! TD*
D12*
G04 #@! TO.C,R15*
X178500000Y-40412500D03*
X178500000Y-38587500D03*
G04 #@! TD*
D14*
G04 #@! TO.C,D15*
X134425000Y-38500000D03*
X136000000Y-38500000D03*
G04 #@! TD*
D16*
G04 #@! TO.C,D87*
X129500000Y-110287500D03*
X129500000Y-108712500D03*
G04 #@! TD*
D15*
G04 #@! TO.C,R74*
X116912500Y-47500000D03*
X115087500Y-47500000D03*
G04 #@! TD*
D18*
G04 #@! TO.C,D92*
X125000000Y-104000000D03*
X125000000Y-105575000D03*
G04 #@! TD*
G04 #@! TO.C,D97*
X120500000Y-113000000D03*
X120500000Y-114575000D03*
G04 #@! TD*
D10*
G04 #@! TO.C,R31*
X176587500Y-109000000D03*
X178412500Y-109000000D03*
G04 #@! TD*
D14*
G04 #@! TO.C,D68*
X135212500Y-128500000D03*
X136787500Y-128500000D03*
G04 #@! TD*
G04 #@! TO.C,D123*
X157425000Y-85500000D03*
X159000000Y-85500000D03*
G04 #@! TD*
D16*
G04 #@! TO.C,D32*
X168500000Y-58287500D03*
X168500000Y-56712500D03*
G04 #@! TD*
D11*
G04 #@! TO.C,D80*
X150362500Y-119500000D03*
X148787500Y-119500000D03*
G04 #@! TD*
D18*
G04 #@! TO.C,D46*
X164000000Y-99212500D03*
X164000000Y-100787500D03*
G04 #@! TD*
D10*
G04 #@! TO.C,R26*
X176587500Y-70000000D03*
X178412500Y-70000000D03*
G04 #@! TD*
D16*
G04 #@! TO.C,D56*
X168500000Y-118287500D03*
X168500000Y-116712500D03*
G04 #@! TD*
D14*
G04 #@! TO.C,D17*
X156712500Y-43000000D03*
X158287500Y-43000000D03*
G04 #@! TD*
D18*
G04 #@! TO.C,D113*
X125000000Y-56137500D03*
X125000000Y-57712500D03*
G04 #@! TD*
D16*
G04 #@! TO.C,D85*
X129500000Y-101075000D03*
X129500000Y-99500000D03*
G04 #@! TD*
D13*
G04 #@! TO.C,R63*
X117000000Y-121675000D03*
X117000000Y-123500000D03*
G04 #@! TD*
D16*
G04 #@! TO.C,D36*
X168500000Y-75787500D03*
X168500000Y-74212500D03*
G04 #@! TD*
D10*
G04 #@! TO.C,R37*
X176587500Y-90500000D03*
X178412500Y-90500000D03*
G04 #@! TD*
D12*
G04 #@! TO.C,R86*
X134000000Y-64912500D03*
X134000000Y-63087500D03*
G04 #@! TD*
D15*
G04 #@! TO.C,R81*
X116912500Y-57500000D03*
X115087500Y-57500000D03*
G04 #@! TD*
D14*
G04 #@! TO.C,D2*
X134425000Y-43000000D03*
X136000000Y-43000000D03*
G04 #@! TD*
D16*
G04 #@! TO.C,D107*
X129500000Y-67000000D03*
X129500000Y-65425000D03*
G04 #@! TD*
D13*
G04 #@! TO.C,R13*
X157500000Y-46587500D03*
X157500000Y-48412500D03*
G04 #@! TD*
D10*
G04 #@! TO.C,R24*
X176587500Y-53000000D03*
X178412500Y-53000000D03*
G04 #@! TD*
D11*
G04 #@! TO.C,D136*
X163212500Y-81000000D03*
X161637500Y-81000000D03*
G04 #@! TD*
D13*
G04 #@! TO.C,R2*
X135500000Y-54587500D03*
X135500000Y-56412500D03*
G04 #@! TD*
D18*
G04 #@! TO.C,D116*
X125000000Y-43212500D03*
X125000000Y-44787500D03*
G04 #@! TD*
G04 #@! TO.C,D48*
X164000000Y-90212500D03*
X164000000Y-91787500D03*
G04 #@! TD*
D12*
G04 #@! TO.C,R85*
X136000000Y-64912500D03*
X136000000Y-63087500D03*
G04 #@! TD*
G04 #@! TO.C,R53*
X149000000Y-115912500D03*
X149000000Y-114087500D03*
G04 #@! TD*
D11*
G04 #@! TO.C,D135*
X159000000Y-81000000D03*
X157425000Y-81000000D03*
G04 #@! TD*
D14*
G04 #@! TO.C,D124*
X153137500Y-85500000D03*
X154712500Y-85500000D03*
G04 #@! TD*
D12*
G04 #@! TO.C,R98*
X144925000Y-72912500D03*
X144925000Y-71087500D03*
G04 #@! TD*
D16*
G04 #@! TO.C,D22*
X173000000Y-71575000D03*
X173000000Y-70000000D03*
G04 #@! TD*
D20*
G04 #@! TO.C,Q12*
X115050000Y-76437500D03*
X116950000Y-76437500D03*
X116000000Y-74562500D03*
G04 #@! TD*
D12*
G04 #@! TO.C,R90*
X141925000Y-72912500D03*
X141925000Y-71087500D03*
G04 #@! TD*
G04 #@! TO.C,R88*
X158925000Y-72912500D03*
X158925000Y-71087500D03*
G04 #@! TD*
D14*
G04 #@! TO.C,D1*
X138712500Y-43000000D03*
X140287500Y-43000000D03*
G04 #@! TD*
G04 #@! TO.C,D11*
X152425000Y-38500000D03*
X154000000Y-38500000D03*
G04 #@! TD*
D13*
G04 #@! TO.C,R4*
X134500000Y-46587500D03*
X134500000Y-48412500D03*
G04 #@! TD*
G04 #@! TO.C,R1*
X133500000Y-54587500D03*
X133500000Y-56412500D03*
G04 #@! TD*
D18*
G04 #@! TO.C,D24*
X164000000Y-65712500D03*
X164000000Y-67287500D03*
G04 #@! TD*
D12*
G04 #@! TO.C,R89*
X150425000Y-72912500D03*
X150425000Y-71087500D03*
G04 #@! TD*
G04 #@! TO.C,R16*
X176500000Y-40412500D03*
X176500000Y-38587500D03*
G04 #@! TD*
D13*
G04 #@! TO.C,R78*
X115000000Y-78587500D03*
X115000000Y-80412500D03*
G04 #@! TD*
D18*
G04 #@! TO.C,D115*
X125000000Y-47425000D03*
X125000000Y-49000000D03*
G04 #@! TD*
D13*
G04 #@! TO.C,R9*
X159000000Y-46587500D03*
X159000000Y-48412500D03*
G04 #@! TD*
D11*
G04 #@! TO.C,D139*
X145712500Y-76500000D03*
X144137500Y-76500000D03*
G04 #@! TD*
D21*
G04 #@! TO.C,Q13*
X135950000Y-67062500D03*
X134050000Y-67062500D03*
X135000000Y-68937500D03*
G04 #@! TD*
D15*
G04 #@! TO.C,R99*
X147712500Y-102090000D03*
X145887500Y-102090000D03*
G04 #@! TD*
D16*
G04 #@! TO.C,D21*
X173000000Y-67287500D03*
X173000000Y-65712500D03*
G04 #@! TD*
D13*
G04 #@! TO.C,R64*
X115000000Y-121675000D03*
X115000000Y-123500000D03*
G04 #@! TD*
D18*
G04 #@! TO.C,D23*
X164000000Y-70000000D03*
X164000000Y-71575000D03*
G04 #@! TD*
D16*
G04 #@! TO.C,D83*
X129500000Y-92287500D03*
X129500000Y-90712500D03*
G04 #@! TD*
D15*
G04 #@! TO.C,R68*
X116912500Y-92287500D03*
X115087500Y-92287500D03*
G04 #@! TD*
D18*
G04 #@! TO.C,D118*
X120500000Y-65425000D03*
X120500000Y-67000000D03*
G04 #@! TD*
M02*
