M48
INCH,TZ
T1C0.0098
T2C0.0118
T3C0.0197
T4C0.0394
T5C0.1260
%
G90
G05
T1
X46063Y-26772
X46343Y-14976
X46504Y-32528
X46508Y-48602
X46610Y-31658
X46976Y-43909
X47071Y-40323
X47154Y-23303
X47969Y-34488
X48039Y-25713
X48067Y-38413
X48106Y-32083
X48142Y-22126
X48177Y-35756
X48189Y-39189
X48276Y-42831
X48437Y-16894
X48437Y-17823
X48701Y-51087
X52953Y-17764
X52996Y-21839
X53189Y-41217
X54354Y-29209
X55378Y-30941
X55583Y-46268
X56394Y-46287
X56409Y-31161
X56516Y-16130
X56717Y-43280
X57480Y-20866
X57480Y-23622
X57634Y-17669
X57874Y-25984
X57874Y-29331
X58071Y-31102
X58437Y-46295
X59055Y-30906
X59181Y-46260
X59764Y-43008
X60228Y-16043
X61130Y-17661
X61173Y-24776
X61220Y-29134
X62382Y-23634
X62402Y-30906
X62409Y-41909
X62425Y-22701
X62427Y-40945
X62457Y-48016
X62634Y-24319
X63236Y-20622
X63327Y-47744
X66898Y-51535
X67185Y-20976
X67217Y-28028
X67291Y-24520
X67327Y-23382
X67331Y-19972
X67382Y-41291
X67484Y-27051
X68783Y-32878
X69012Y-31437
X69102Y-44953
X69134Y-49063
X69157Y-43898
X69335Y-40441
X69535Y-14634
X69579Y-23370
T2
X53976Y-41039
X54665Y-38028
X55130Y-37937
X55421Y-38907
X55441Y-40817
X55451Y-38350
X55654Y-36772
X56378Y-41350
X56646Y-36776
X57130Y-36772
X57425Y-38382
X57634Y-38173
X57772Y-36780
X57975Y-38405
X58134Y-36539
X58190Y-38190
X63205Y-33071
X63303Y-31157
X63758Y-32764
X64268Y-31224
X64756Y-32461
T3
X45118Y-11811
X45118Y-54724
X45395Y-11143
X45395Y-12479
X45395Y-54056
X45395Y-55393
X46063Y-10866
X46063Y-12756
X46063Y-53780
X46063Y-55669
X46731Y-11143
X46731Y-12479
X46731Y-54056
X46731Y-55393
X47008Y-11811
X47008Y-54724
X68740Y-11811
X68740Y-54724
X69017Y-11143
X69017Y-12479
X69017Y-54056
X69017Y-55393
X69685Y-10866
X69685Y-12756
X69685Y-53780
X69685Y-55669
X70353Y-11143
X70353Y-12479
X70353Y-54056
X70353Y-55393
X70630Y-11811
X70630Y-54724
T4
X53240Y-52433
X54240Y-52433
X55240Y-52433
X55862Y-54024
X55862Y-55024
X56240Y-52433
X56862Y-54024
X56862Y-55024
X57240Y-52433
X57862Y-54024
X57862Y-55024
X58240Y-52433
X58862Y-54024
X58862Y-55024
X59240Y-52433
X60240Y-52433
T5
X46063Y-11811
X46063Y-54724
X69685Y-11811
X69685Y-54724
M30
