G04 #@! TF.GenerationSoftware,KiCad,Pcbnew,8.0.6+dfsg-1*
G04 #@! TF.CreationDate,2024-11-21T19:14:50-08:00*
G04 #@! TF.ProjectId,digits,64696769-7473-42e6-9b69-6361645f7063,rev?*
G04 #@! TF.SameCoordinates,Original*
G04 #@! TF.FileFunction,Legend,Bot*
G04 #@! TF.FilePolarity,Positive*
%FSLAX46Y46*%
G04 Gerber Fmt 4.6, Leading zero omitted, Abs format (unit mm)*
G04 Created by KiCad (PCBNEW 8.0.6+dfsg-1) date 2024-11-21 19:14:50*
%MOMM*%
%LPD*%
G01*
G04 APERTURE LIST*
%ADD10C,0.500000*%
%ADD11C,0.750000*%
%ADD12C,0.150000*%
%ADD13C,0.187500*%
%ADD14C,0.375000*%
%ADD15C,0.250000*%
%ADD16C,0.120000*%
%ADD17C,0.000000*%
%ADD18C,0.800000*%
%ADD19C,6.400000*%
%ADD20R,1.700000X1.700000*%
%ADD21O,1.700000X1.700000*%
G04 APERTURE END LIST*
D10*
X162212976Y-46811180D02*
X162212976Y-48811180D01*
X162212976Y-46906418D02*
X162022500Y-46811180D01*
X162022500Y-46811180D02*
X161641547Y-46811180D01*
X161641547Y-46811180D02*
X161451071Y-46906418D01*
X161451071Y-46906418D02*
X161355833Y-47001656D01*
X161355833Y-47001656D02*
X161260595Y-47192133D01*
X161260595Y-47192133D02*
X161260595Y-47763561D01*
X161260595Y-47763561D02*
X161355833Y-47954037D01*
X161355833Y-47954037D02*
X161451071Y-48049276D01*
X161451071Y-48049276D02*
X161641547Y-48144514D01*
X161641547Y-48144514D02*
X162022500Y-48144514D01*
X162022500Y-48144514D02*
X162212976Y-48049276D01*
X159546309Y-48144514D02*
X159546309Y-47096895D01*
X159546309Y-47096895D02*
X159641547Y-46906418D01*
X159641547Y-46906418D02*
X159832023Y-46811180D01*
X159832023Y-46811180D02*
X160212976Y-46811180D01*
X160212976Y-46811180D02*
X160403452Y-46906418D01*
X159546309Y-48049276D02*
X159736785Y-48144514D01*
X159736785Y-48144514D02*
X160212976Y-48144514D01*
X160212976Y-48144514D02*
X160403452Y-48049276D01*
X160403452Y-48049276D02*
X160498690Y-47858799D01*
X160498690Y-47858799D02*
X160498690Y-47668323D01*
X160498690Y-47668323D02*
X160403452Y-47477847D01*
X160403452Y-47477847D02*
X160212976Y-47382609D01*
X160212976Y-47382609D02*
X159736785Y-47382609D01*
X159736785Y-47382609D02*
X159546309Y-47287371D01*
X158784404Y-46811180D02*
X158403452Y-48144514D01*
X158403452Y-48144514D02*
X158022499Y-47192133D01*
X158022499Y-47192133D02*
X157641547Y-48144514D01*
X157641547Y-48144514D02*
X157260595Y-46811180D01*
X156498690Y-46811180D02*
X156498690Y-48811180D01*
X156498690Y-46906418D02*
X156308214Y-46811180D01*
X156308214Y-46811180D02*
X155927261Y-46811180D01*
X155927261Y-46811180D02*
X155736785Y-46906418D01*
X155736785Y-46906418D02*
X155641547Y-47001656D01*
X155641547Y-47001656D02*
X155546309Y-47192133D01*
X155546309Y-47192133D02*
X155546309Y-47763561D01*
X155546309Y-47763561D02*
X155641547Y-47954037D01*
X155641547Y-47954037D02*
X155736785Y-48049276D01*
X155736785Y-48049276D02*
X155927261Y-48144514D01*
X155927261Y-48144514D02*
X156308214Y-48144514D01*
X156308214Y-48144514D02*
X156498690Y-48049276D01*
X154689166Y-48144514D02*
X154689166Y-46811180D01*
X154689166Y-47192133D02*
X154593928Y-47001656D01*
X154593928Y-47001656D02*
X154498690Y-46906418D01*
X154498690Y-46906418D02*
X154308214Y-46811180D01*
X154308214Y-46811180D02*
X154117737Y-46811180D01*
X153451071Y-48144514D02*
X153451071Y-46811180D01*
X153451071Y-46144514D02*
X153546309Y-46239752D01*
X153546309Y-46239752D02*
X153451071Y-46334990D01*
X153451071Y-46334990D02*
X153355833Y-46239752D01*
X153355833Y-46239752D02*
X153451071Y-46144514D01*
X153451071Y-46144514D02*
X153451071Y-46334990D01*
X152498690Y-46811180D02*
X152498690Y-48144514D01*
X152498690Y-47001656D02*
X152403452Y-46906418D01*
X152403452Y-46906418D02*
X152212976Y-46811180D01*
X152212976Y-46811180D02*
X151927261Y-46811180D01*
X151927261Y-46811180D02*
X151736785Y-46906418D01*
X151736785Y-46906418D02*
X151641547Y-47096895D01*
X151641547Y-47096895D02*
X151641547Y-48144514D01*
X150974880Y-46811180D02*
X150212976Y-46811180D01*
X150689166Y-46144514D02*
X150689166Y-47858799D01*
X150689166Y-47858799D02*
X150593928Y-48049276D01*
X150593928Y-48049276D02*
X150403452Y-48144514D01*
X150403452Y-48144514D02*
X150212976Y-48144514D01*
X149546309Y-46811180D02*
X149546309Y-48811180D01*
X149546309Y-46906418D02*
X149355833Y-46811180D01*
X149355833Y-46811180D02*
X148974880Y-46811180D01*
X148974880Y-46811180D02*
X148784404Y-46906418D01*
X148784404Y-46906418D02*
X148689166Y-47001656D01*
X148689166Y-47001656D02*
X148593928Y-47192133D01*
X148593928Y-47192133D02*
X148593928Y-47763561D01*
X148593928Y-47763561D02*
X148689166Y-47954037D01*
X148689166Y-47954037D02*
X148784404Y-48049276D01*
X148784404Y-48049276D02*
X148974880Y-48144514D01*
X148974880Y-48144514D02*
X149355833Y-48144514D01*
X149355833Y-48144514D02*
X149546309Y-48049276D01*
X147736785Y-48144514D02*
X147736785Y-46811180D01*
X147736785Y-47192133D02*
X147641547Y-47001656D01*
X147641547Y-47001656D02*
X147546309Y-46906418D01*
X147546309Y-46906418D02*
X147355833Y-46811180D01*
X147355833Y-46811180D02*
X147165356Y-46811180D01*
X146212976Y-48144514D02*
X146403452Y-48049276D01*
X146403452Y-48049276D02*
X146498690Y-47954037D01*
X146498690Y-47954037D02*
X146593928Y-47763561D01*
X146593928Y-47763561D02*
X146593928Y-47192133D01*
X146593928Y-47192133D02*
X146498690Y-47001656D01*
X146498690Y-47001656D02*
X146403452Y-46906418D01*
X146403452Y-46906418D02*
X146212976Y-46811180D01*
X146212976Y-46811180D02*
X145927261Y-46811180D01*
X145927261Y-46811180D02*
X145736785Y-46906418D01*
X145736785Y-46906418D02*
X145641547Y-47001656D01*
X145641547Y-47001656D02*
X145546309Y-47192133D01*
X145546309Y-47192133D02*
X145546309Y-47763561D01*
X145546309Y-47763561D02*
X145641547Y-47954037D01*
X145641547Y-47954037D02*
X145736785Y-48049276D01*
X145736785Y-48049276D02*
X145927261Y-48144514D01*
X145927261Y-48144514D02*
X146212976Y-48144514D01*
X144974880Y-46811180D02*
X144212976Y-46811180D01*
X144689166Y-46144514D02*
X144689166Y-47858799D01*
X144689166Y-47858799D02*
X144593928Y-48049276D01*
X144593928Y-48049276D02*
X144403452Y-48144514D01*
X144403452Y-48144514D02*
X144212976Y-48144514D01*
X143260595Y-48144514D02*
X143451071Y-48049276D01*
X143451071Y-48049276D02*
X143546309Y-47954037D01*
X143546309Y-47954037D02*
X143641547Y-47763561D01*
X143641547Y-47763561D02*
X143641547Y-47192133D01*
X143641547Y-47192133D02*
X143546309Y-47001656D01*
X143546309Y-47001656D02*
X143451071Y-46906418D01*
X143451071Y-46906418D02*
X143260595Y-46811180D01*
X143260595Y-46811180D02*
X142974880Y-46811180D01*
X142974880Y-46811180D02*
X142784404Y-46906418D01*
X142784404Y-46906418D02*
X142689166Y-47001656D01*
X142689166Y-47001656D02*
X142593928Y-47192133D01*
X142593928Y-47192133D02*
X142593928Y-47763561D01*
X142593928Y-47763561D02*
X142689166Y-47954037D01*
X142689166Y-47954037D02*
X142784404Y-48049276D01*
X142784404Y-48049276D02*
X142974880Y-48144514D01*
X142974880Y-48144514D02*
X143260595Y-48144514D01*
X142022499Y-46811180D02*
X141260595Y-46811180D01*
X141736785Y-46144514D02*
X141736785Y-47858799D01*
X141736785Y-47858799D02*
X141641547Y-48049276D01*
X141641547Y-48049276D02*
X141451071Y-48144514D01*
X141451071Y-48144514D02*
X141260595Y-48144514D01*
X140784404Y-46811180D02*
X140308214Y-48144514D01*
X139832023Y-46811180D02*
X140308214Y-48144514D01*
X140308214Y-48144514D02*
X140498690Y-48620704D01*
X140498690Y-48620704D02*
X140593928Y-48715942D01*
X140593928Y-48715942D02*
X140784404Y-48811180D01*
X139070118Y-46811180D02*
X139070118Y-48811180D01*
X139070118Y-46906418D02*
X138879642Y-46811180D01*
X138879642Y-46811180D02*
X138498689Y-46811180D01*
X138498689Y-46811180D02*
X138308213Y-46906418D01*
X138308213Y-46906418D02*
X138212975Y-47001656D01*
X138212975Y-47001656D02*
X138117737Y-47192133D01*
X138117737Y-47192133D02*
X138117737Y-47763561D01*
X138117737Y-47763561D02*
X138212975Y-47954037D01*
X138212975Y-47954037D02*
X138308213Y-48049276D01*
X138308213Y-48049276D02*
X138498689Y-48144514D01*
X138498689Y-48144514D02*
X138879642Y-48144514D01*
X138879642Y-48144514D02*
X139070118Y-48049276D01*
X137260594Y-48144514D02*
X137260594Y-46811180D01*
X137260594Y-46144514D02*
X137355832Y-46239752D01*
X137355832Y-46239752D02*
X137260594Y-46334990D01*
X137260594Y-46334990D02*
X137165356Y-46239752D01*
X137165356Y-46239752D02*
X137260594Y-46144514D01*
X137260594Y-46144514D02*
X137260594Y-46334990D01*
X136308213Y-46811180D02*
X136308213Y-48144514D01*
X136308213Y-47001656D02*
X136212975Y-46906418D01*
X136212975Y-46906418D02*
X136022499Y-46811180D01*
X136022499Y-46811180D02*
X135736784Y-46811180D01*
X135736784Y-46811180D02*
X135546308Y-46906418D01*
X135546308Y-46906418D02*
X135451070Y-47096895D01*
X135451070Y-47096895D02*
X135451070Y-48144514D01*
X133641546Y-46811180D02*
X133641546Y-48430228D01*
X133641546Y-48430228D02*
X133736784Y-48620704D01*
X133736784Y-48620704D02*
X133832022Y-48715942D01*
X133832022Y-48715942D02*
X134022499Y-48811180D01*
X134022499Y-48811180D02*
X134308213Y-48811180D01*
X134308213Y-48811180D02*
X134498689Y-48715942D01*
X133641546Y-48049276D02*
X133832022Y-48144514D01*
X133832022Y-48144514D02*
X134212975Y-48144514D01*
X134212975Y-48144514D02*
X134403451Y-48049276D01*
X134403451Y-48049276D02*
X134498689Y-47954037D01*
X134498689Y-47954037D02*
X134593927Y-47763561D01*
X134593927Y-47763561D02*
X134593927Y-47192133D01*
X134593927Y-47192133D02*
X134498689Y-47001656D01*
X134498689Y-47001656D02*
X134403451Y-46906418D01*
X134403451Y-46906418D02*
X134212975Y-46811180D01*
X134212975Y-46811180D02*
X133832022Y-46811180D01*
X133832022Y-46811180D02*
X133641546Y-46906418D01*
X132689165Y-47954037D02*
X132593927Y-48049276D01*
X132593927Y-48049276D02*
X132689165Y-48144514D01*
X132689165Y-48144514D02*
X132784403Y-48049276D01*
X132784403Y-48049276D02*
X132689165Y-47954037D01*
X132689165Y-47954037D02*
X132689165Y-48144514D01*
X131451070Y-48144514D02*
X131641546Y-48049276D01*
X131641546Y-48049276D02*
X131736784Y-47954037D01*
X131736784Y-47954037D02*
X131832022Y-47763561D01*
X131832022Y-47763561D02*
X131832022Y-47192133D01*
X131832022Y-47192133D02*
X131736784Y-47001656D01*
X131736784Y-47001656D02*
X131641546Y-46906418D01*
X131641546Y-46906418D02*
X131451070Y-46811180D01*
X131451070Y-46811180D02*
X131165355Y-46811180D01*
X131165355Y-46811180D02*
X130974879Y-46906418D01*
X130974879Y-46906418D02*
X130879641Y-47001656D01*
X130879641Y-47001656D02*
X130784403Y-47192133D01*
X130784403Y-47192133D02*
X130784403Y-47763561D01*
X130784403Y-47763561D02*
X130879641Y-47954037D01*
X130879641Y-47954037D02*
X130974879Y-48049276D01*
X130974879Y-48049276D02*
X131165355Y-48144514D01*
X131165355Y-48144514D02*
X131451070Y-48144514D01*
X129927260Y-48144514D02*
X129927260Y-46811180D01*
X129927260Y-47192133D02*
X129832022Y-47001656D01*
X129832022Y-47001656D02*
X129736784Y-46906418D01*
X129736784Y-46906418D02*
X129546308Y-46811180D01*
X129546308Y-46811180D02*
X129355831Y-46811180D01*
X127832022Y-46811180D02*
X127832022Y-48430228D01*
X127832022Y-48430228D02*
X127927260Y-48620704D01*
X127927260Y-48620704D02*
X128022498Y-48715942D01*
X128022498Y-48715942D02*
X128212975Y-48811180D01*
X128212975Y-48811180D02*
X128498689Y-48811180D01*
X128498689Y-48811180D02*
X128689165Y-48715942D01*
X127832022Y-48049276D02*
X128022498Y-48144514D01*
X128022498Y-48144514D02*
X128403451Y-48144514D01*
X128403451Y-48144514D02*
X128593927Y-48049276D01*
X128593927Y-48049276D02*
X128689165Y-47954037D01*
X128689165Y-47954037D02*
X128784403Y-47763561D01*
X128784403Y-47763561D02*
X128784403Y-47192133D01*
X128784403Y-47192133D02*
X128689165Y-47001656D01*
X128689165Y-47001656D02*
X128593927Y-46906418D01*
X128593927Y-46906418D02*
X128403451Y-46811180D01*
X128403451Y-46811180D02*
X128022498Y-46811180D01*
X128022498Y-46811180D02*
X127832022Y-46906418D01*
D11*
G36*
X138165831Y-99733196D02*
G01*
X139503152Y-100401857D01*
X140826096Y-101724801D01*
X141493144Y-103725944D01*
X141493144Y-106861519D01*
X127243144Y-106861519D01*
X127243144Y-103725943D01*
X127910191Y-101724801D01*
X129233136Y-100401856D01*
X130570459Y-99733194D01*
X133342878Y-99040090D01*
X135393409Y-99040090D01*
X138165831Y-99733196D01*
G37*
G36*
X157223739Y-90401856D02*
G01*
X157832399Y-91010516D01*
X158499447Y-93011659D01*
X158499447Y-97575805D01*
X151392304Y-97575805D01*
X151392304Y-92325044D01*
X152039785Y-91030082D01*
X152668010Y-90401856D01*
X153962972Y-89754376D01*
X155928779Y-89754376D01*
X157223739Y-90401856D01*
G37*
G36*
X164366596Y-91116142D02*
G01*
X164994823Y-91744369D01*
X165642304Y-93039330D01*
X165642304Y-97575805D01*
X159249447Y-97575805D01*
X159249447Y-93039329D01*
X159896927Y-91744368D01*
X160525153Y-91116143D01*
X161820115Y-90468662D01*
X163071636Y-90468662D01*
X164366596Y-91116142D01*
G37*
G36*
X168058971Y-109278186D02*
G01*
X124826477Y-109278186D01*
X124826477Y-103665090D01*
X126493144Y-103665090D01*
X126493144Y-107236519D01*
X126496352Y-107285466D01*
X126521689Y-107380025D01*
X126570636Y-107464805D01*
X126639858Y-107534027D01*
X126724638Y-107582974D01*
X126819197Y-107608311D01*
X126868144Y-107611519D01*
X141868144Y-107611519D01*
X141917091Y-107608311D01*
X142011650Y-107582974D01*
X142096430Y-107534027D01*
X142165652Y-107464805D01*
X142214599Y-107380025D01*
X142239936Y-107285466D01*
X142243144Y-107236519D01*
X142243144Y-103665090D01*
X142239936Y-103616143D01*
X142237011Y-103605230D01*
X142236335Y-103593954D01*
X142223900Y-103546505D01*
X141509614Y-101403648D01*
X141501961Y-101384882D01*
X141500312Y-101378726D01*
X141497380Y-101373649D01*
X141491092Y-101358227D01*
X141470266Y-101326685D01*
X141451365Y-101293947D01*
X141440381Y-101281422D01*
X141437153Y-101276533D01*
X141432386Y-101272306D01*
X141419023Y-101257068D01*
X139990452Y-99828497D01*
X139953573Y-99796155D01*
X139943789Y-99790506D01*
X139935337Y-99783011D01*
X139892992Y-99758252D01*
X138464420Y-99043966D01*
X138440100Y-99033735D01*
X138434374Y-99030556D01*
X138426666Y-99028083D01*
X138419206Y-99024945D01*
X138412788Y-99023631D01*
X138387666Y-99015573D01*
X135530523Y-98301287D01*
X135492743Y-98294429D01*
X135488519Y-98293298D01*
X135485369Y-98293091D01*
X135482259Y-98292527D01*
X135477879Y-98292600D01*
X135439572Y-98290090D01*
X133296715Y-98290090D01*
X133258407Y-98292600D01*
X133254028Y-98292527D01*
X133250916Y-98293091D01*
X133247768Y-98293298D01*
X133243545Y-98294429D01*
X133205764Y-98301286D01*
X130348621Y-99015573D01*
X130323500Y-99023631D01*
X130317081Y-99024945D01*
X130309617Y-99028084D01*
X130301914Y-99030556D01*
X130296190Y-99033733D01*
X130271867Y-99043966D01*
X128843296Y-99758252D01*
X128800951Y-99783011D01*
X128792497Y-99790506D01*
X128782715Y-99796155D01*
X128745836Y-99828497D01*
X127317265Y-101257068D01*
X127303905Y-101272302D01*
X127299135Y-101276532D01*
X127295904Y-101281425D01*
X127284923Y-101293947D01*
X127266020Y-101326687D01*
X127245196Y-101358227D01*
X127238908Y-101373644D01*
X127235975Y-101378726D01*
X127234323Y-101384887D01*
X127226674Y-101403647D01*
X126512388Y-103546505D01*
X126499953Y-103593954D01*
X126499276Y-103605230D01*
X126496352Y-103616143D01*
X126493144Y-103665090D01*
X124826477Y-103665090D01*
X124826477Y-92187572D01*
X126496352Y-92187572D01*
X126496352Y-92285466D01*
X126521689Y-92380025D01*
X126570636Y-92464805D01*
X126639858Y-92534027D01*
X126724638Y-92582974D01*
X126819197Y-92608311D01*
X126868144Y-92611519D01*
X141868144Y-92611519D01*
X141917091Y-92608311D01*
X142011650Y-92582974D01*
X142096430Y-92534027D01*
X142165652Y-92464805D01*
X142214599Y-92380025D01*
X142239936Y-92285466D01*
X142239936Y-92236519D01*
X150642304Y-92236519D01*
X150642304Y-97950805D01*
X150645512Y-97999752D01*
X150670849Y-98094311D01*
X150719796Y-98179091D01*
X150789018Y-98248313D01*
X150873798Y-98297260D01*
X150968357Y-98322597D01*
X151017304Y-98325805D01*
X166017304Y-98325805D01*
X166066251Y-98322597D01*
X166160810Y-98297260D01*
X166245590Y-98248313D01*
X166314812Y-98179091D01*
X166363759Y-98094311D01*
X166389096Y-97999752D01*
X166392304Y-97950805D01*
X166392304Y-92950805D01*
X166390978Y-92930587D01*
X166391361Y-92924221D01*
X166390185Y-92918474D01*
X166389096Y-92901858D01*
X166379314Y-92865352D01*
X166371735Y-92828314D01*
X166365276Y-92812960D01*
X166363759Y-92807299D01*
X166360571Y-92801778D01*
X166352714Y-92783100D01*
X165638428Y-91354529D01*
X165613669Y-91312184D01*
X165606173Y-91303731D01*
X165600525Y-91293948D01*
X165568183Y-91257069D01*
X164853897Y-90542783D01*
X164817018Y-90510441D01*
X164807234Y-90504792D01*
X164798782Y-90497297D01*
X164756437Y-90472538D01*
X163327866Y-89758252D01*
X163309187Y-89750394D01*
X163303667Y-89747207D01*
X163298005Y-89745689D01*
X163282652Y-89739231D01*
X163245613Y-89731651D01*
X163209108Y-89721870D01*
X163192491Y-89720780D01*
X163186745Y-89719605D01*
X163180378Y-89719987D01*
X163160161Y-89718662D01*
X161731590Y-89718662D01*
X161711372Y-89719987D01*
X161705006Y-89719605D01*
X161699259Y-89720780D01*
X161682643Y-89721870D01*
X161646137Y-89731651D01*
X161609099Y-89739231D01*
X161593745Y-89745689D01*
X161588084Y-89747207D01*
X161582563Y-89750394D01*
X161563885Y-89758252D01*
X160135313Y-90472538D01*
X160092968Y-90497297D01*
X160084515Y-90504792D01*
X160074732Y-90510441D01*
X160037853Y-90542783D01*
X159323567Y-91257069D01*
X159291225Y-91293948D01*
X159285576Y-91303731D01*
X159278081Y-91312184D01*
X159253322Y-91354529D01*
X158943912Y-91973348D01*
X158515917Y-90689363D01*
X158508267Y-90670604D01*
X158506616Y-90664441D01*
X158503681Y-90659358D01*
X158497395Y-90643942D01*
X158476572Y-90612405D01*
X158457668Y-90579662D01*
X158446684Y-90567137D01*
X158443456Y-90562248D01*
X158438689Y-90558021D01*
X158425326Y-90542783D01*
X157711040Y-89828497D01*
X157674161Y-89796155D01*
X157664377Y-89790506D01*
X157655925Y-89783011D01*
X157613580Y-89758252D01*
X156185009Y-89043966D01*
X156166330Y-89036108D01*
X156160810Y-89032921D01*
X156155148Y-89031403D01*
X156139795Y-89024945D01*
X156102756Y-89017365D01*
X156066251Y-89007584D01*
X156049634Y-89006494D01*
X156043888Y-89005319D01*
X156037521Y-89005701D01*
X156017304Y-89004376D01*
X153874447Y-89004376D01*
X153854229Y-89005701D01*
X153847863Y-89005319D01*
X153842116Y-89006494D01*
X153825500Y-89007584D01*
X153788994Y-89017365D01*
X153751956Y-89024945D01*
X153736602Y-89031403D01*
X153730941Y-89032921D01*
X153725420Y-89036108D01*
X153706742Y-89043966D01*
X152278170Y-89758252D01*
X152235825Y-89783011D01*
X152227371Y-89790506D01*
X152217589Y-89796155D01*
X152180710Y-89828497D01*
X151466425Y-90542783D01*
X151434082Y-90579662D01*
X151428432Y-90589447D01*
X151420939Y-90597898D01*
X151396180Y-90640243D01*
X150681894Y-92068814D01*
X150674036Y-92087492D01*
X150670849Y-92093013D01*
X150669331Y-92098674D01*
X150662873Y-92114028D01*
X150655293Y-92151066D01*
X150645512Y-92187572D01*
X150644422Y-92204188D01*
X150643247Y-92209935D01*
X150643629Y-92216301D01*
X150642304Y-92236519D01*
X142239936Y-92236519D01*
X142239936Y-92187572D01*
X142214599Y-92093013D01*
X142165652Y-92008233D01*
X142096430Y-91939011D01*
X142011650Y-91890064D01*
X141917091Y-91864727D01*
X141868144Y-91861519D01*
X126868144Y-91861519D01*
X126819197Y-91864727D01*
X126724638Y-91890064D01*
X126639858Y-91939011D01*
X126570636Y-92008233D01*
X126521689Y-92093013D01*
X126496352Y-92187572D01*
X124826477Y-92187572D01*
X124826477Y-79379376D01*
X126493144Y-79379376D01*
X126493144Y-80807948D01*
X126496352Y-80856895D01*
X126499276Y-80867807D01*
X126499953Y-80879084D01*
X126512388Y-80926533D01*
X127226674Y-83069391D01*
X127234323Y-83088150D01*
X127235975Y-83094312D01*
X127238908Y-83099393D01*
X127245196Y-83114811D01*
X127266020Y-83146350D01*
X127284923Y-83179091D01*
X127295904Y-83191612D01*
X127299135Y-83196506D01*
X127303905Y-83200735D01*
X127317265Y-83215970D01*
X128745836Y-84644541D01*
X128782715Y-84676883D01*
X128792497Y-84682531D01*
X128800951Y-84690027D01*
X128843296Y-84714786D01*
X130271867Y-85429072D01*
X130296190Y-85439304D01*
X130301914Y-85442482D01*
X130309617Y-85444953D01*
X130317081Y-85448093D01*
X130323500Y-85449406D01*
X130348621Y-85457465D01*
X133205764Y-86171752D01*
X133243545Y-86178608D01*
X133247768Y-86179740D01*
X133250916Y-86179946D01*
X133254028Y-86180511D01*
X133258407Y-86180437D01*
X133296715Y-86182948D01*
X135439572Y-86182948D01*
X135477879Y-86180437D01*
X135482259Y-86180511D01*
X135485369Y-86179946D01*
X135488519Y-86179740D01*
X135492743Y-86178608D01*
X135530523Y-86171751D01*
X138387666Y-85457465D01*
X138412788Y-85449406D01*
X138419206Y-85448093D01*
X138426666Y-85444954D01*
X138434374Y-85442482D01*
X138440100Y-85439302D01*
X138464420Y-85429072D01*
X139892992Y-84714786D01*
X139935337Y-84690027D01*
X139943789Y-84682531D01*
X139953573Y-84676883D01*
X139990452Y-84644541D01*
X141419023Y-83215970D01*
X141432386Y-83200731D01*
X141437153Y-83196505D01*
X141440381Y-83191615D01*
X141451365Y-83179091D01*
X141470266Y-83146352D01*
X141491092Y-83114811D01*
X141497380Y-83099388D01*
X141500312Y-83094312D01*
X141501961Y-83088155D01*
X141509614Y-83069390D01*
X141565458Y-82901858D01*
X150645512Y-82901858D01*
X150645512Y-82999752D01*
X150670849Y-83094311D01*
X150719796Y-83179091D01*
X150789018Y-83248313D01*
X150873798Y-83297260D01*
X150968357Y-83322597D01*
X151017304Y-83325805D01*
X166017304Y-83325805D01*
X166066251Y-83322597D01*
X166160810Y-83297260D01*
X166245590Y-83248313D01*
X166314812Y-83179091D01*
X166363759Y-83094311D01*
X166389096Y-82999752D01*
X166389096Y-82901858D01*
X166363759Y-82807299D01*
X166314812Y-82722519D01*
X166245590Y-82653297D01*
X166160810Y-82604350D01*
X166066251Y-82579013D01*
X166017304Y-82575805D01*
X151017304Y-82575805D01*
X150968357Y-82579013D01*
X150873798Y-82604350D01*
X150789018Y-82653297D01*
X150719796Y-82722519D01*
X150670849Y-82807299D01*
X150645512Y-82901858D01*
X141565458Y-82901858D01*
X142223900Y-80926533D01*
X142236335Y-80879084D01*
X142237011Y-80867807D01*
X142239936Y-80856895D01*
X142243144Y-80807948D01*
X142243144Y-78665091D01*
X142241818Y-78644873D01*
X142242201Y-78638507D01*
X142241025Y-78632760D01*
X142239936Y-78616144D01*
X142230154Y-78579638D01*
X142222575Y-78542600D01*
X142216116Y-78527246D01*
X142214599Y-78521585D01*
X142211411Y-78516064D01*
X142203554Y-78497386D01*
X141489268Y-77068814D01*
X141464509Y-77026469D01*
X141399559Y-76953224D01*
X141317865Y-76899284D01*
X141224994Y-76868327D01*
X141127274Y-76862462D01*
X141031367Y-76882088D01*
X140943808Y-76925868D01*
X140870563Y-76990818D01*
X140816623Y-77072512D01*
X140785666Y-77165383D01*
X140779801Y-77263103D01*
X140799427Y-77359010D01*
X140818448Y-77404224D01*
X141493144Y-78753616D01*
X141493144Y-80747094D01*
X140826096Y-82748236D01*
X139503152Y-84071181D01*
X138165831Y-84739841D01*
X135393409Y-85432948D01*
X133342878Y-85432948D01*
X130570459Y-84739843D01*
X129233136Y-84071181D01*
X127910191Y-82748236D01*
X127243144Y-80747094D01*
X127243144Y-79440229D01*
X127910191Y-77439087D01*
X128452045Y-76897233D01*
X132921715Y-76897233D01*
X132921715Y-79379376D01*
X132924923Y-79428323D01*
X132950260Y-79522882D01*
X132999207Y-79607662D01*
X133068429Y-79676884D01*
X133153209Y-79725831D01*
X133247768Y-79751168D01*
X133345662Y-79751168D01*
X133440221Y-79725831D01*
X133525001Y-79676884D01*
X133594223Y-79607662D01*
X133643170Y-79522882D01*
X133668507Y-79428323D01*
X133671715Y-79379376D01*
X133671715Y-76522233D01*
X133668507Y-76473286D01*
X133643170Y-76378727D01*
X133594223Y-76293947D01*
X133525001Y-76224725D01*
X133440221Y-76175778D01*
X133345662Y-76150441D01*
X133296715Y-76147233D01*
X128296715Y-76147233D01*
X128247768Y-76150441D01*
X128247767Y-76150441D01*
X128224155Y-76156768D01*
X128153209Y-76175778D01*
X128068429Y-76224725D01*
X128068420Y-76224733D01*
X128031550Y-76257068D01*
X127317265Y-76971354D01*
X127303903Y-76986589D01*
X127299135Y-76990818D01*
X127295906Y-76995708D01*
X127284922Y-77008233D01*
X127266017Y-77040977D01*
X127245196Y-77072513D01*
X127238907Y-77087933D01*
X127235975Y-77093013D01*
X127234324Y-77099171D01*
X127226674Y-77117933D01*
X126512388Y-79260791D01*
X126499953Y-79308240D01*
X126499276Y-79319516D01*
X126496352Y-79330429D01*
X126493144Y-79379376D01*
X124826477Y-79379376D01*
X124826477Y-70044715D01*
X126496352Y-70044715D01*
X126496352Y-70142609D01*
X126521689Y-70237168D01*
X126570636Y-70321948D01*
X126639858Y-70391170D01*
X126724638Y-70440117D01*
X126819197Y-70465454D01*
X126868144Y-70468662D01*
X141868144Y-70468662D01*
X141917091Y-70465454D01*
X142011650Y-70440117D01*
X142096430Y-70391170D01*
X142165652Y-70321948D01*
X142214599Y-70237168D01*
X142239936Y-70142609D01*
X142239936Y-70093662D01*
X150642304Y-70093662D01*
X150642304Y-71522234D01*
X150645512Y-71571181D01*
X150648436Y-71582093D01*
X150649113Y-71593370D01*
X150661548Y-71640819D01*
X151375834Y-73783677D01*
X151383483Y-73802436D01*
X151385135Y-73808598D01*
X151388068Y-73813679D01*
X151394356Y-73829097D01*
X151415180Y-73860636D01*
X151434083Y-73893377D01*
X151445064Y-73905898D01*
X151448295Y-73910792D01*
X151453065Y-73915021D01*
X151466425Y-73930256D01*
X152894996Y-75358827D01*
X152931875Y-75391169D01*
X152941657Y-75396817D01*
X152950111Y-75404313D01*
X152992456Y-75429072D01*
X154421027Y-76143358D01*
X154445350Y-76153590D01*
X154451074Y-76156768D01*
X154458777Y-76159239D01*
X154466241Y-76162379D01*
X154472660Y-76163692D01*
X154497781Y-76171751D01*
X157354924Y-76886038D01*
X157392705Y-76892894D01*
X157396928Y-76894026D01*
X157400076Y-76894232D01*
X157403188Y-76894797D01*
X157407567Y-76894723D01*
X157445875Y-76897234D01*
X159588732Y-76897234D01*
X159627039Y-76894723D01*
X159631419Y-76894797D01*
X159634529Y-76894232D01*
X159637679Y-76894026D01*
X159641903Y-76892894D01*
X159679683Y-76886037D01*
X162536826Y-76171751D01*
X162561948Y-76163692D01*
X162568366Y-76162379D01*
X162575826Y-76159240D01*
X162583534Y-76156768D01*
X162589260Y-76153588D01*
X162613580Y-76143358D01*
X164042152Y-75429072D01*
X164084497Y-75404313D01*
X164092949Y-75396817D01*
X164102733Y-75391169D01*
X164139612Y-75358827D01*
X165568183Y-73930256D01*
X165581546Y-73915017D01*
X165586313Y-73910791D01*
X165589541Y-73905901D01*
X165600525Y-73893377D01*
X165619426Y-73860638D01*
X165640252Y-73829097D01*
X165646540Y-73813674D01*
X165649472Y-73808598D01*
X165651121Y-73802441D01*
X165658774Y-73783676D01*
X166373060Y-71640819D01*
X166385495Y-71593370D01*
X166386171Y-71582093D01*
X166389096Y-71571181D01*
X166392304Y-71522234D01*
X166392304Y-69379377D01*
X166390978Y-69359159D01*
X166391361Y-69352793D01*
X166390185Y-69347046D01*
X166389096Y-69330430D01*
X166379314Y-69293924D01*
X166371735Y-69256886D01*
X166365276Y-69241532D01*
X166363759Y-69235871D01*
X166360571Y-69230350D01*
X166352714Y-69211672D01*
X165638428Y-67783100D01*
X165613669Y-67740755D01*
X165548719Y-67667510D01*
X165467025Y-67613570D01*
X165374154Y-67582613D01*
X165276434Y-67576748D01*
X165180527Y-67596374D01*
X165092968Y-67640154D01*
X165019723Y-67705104D01*
X164965783Y-67786798D01*
X164934826Y-67879669D01*
X164928961Y-67977389D01*
X164948587Y-68073296D01*
X164967608Y-68118510D01*
X165642304Y-69467902D01*
X165642304Y-71461380D01*
X164975256Y-73462522D01*
X163652312Y-74785467D01*
X162314991Y-75454127D01*
X159542569Y-76147234D01*
X157492038Y-76147234D01*
X154719619Y-75454129D01*
X153382296Y-74785467D01*
X152059351Y-73462522D01*
X151392304Y-71461380D01*
X151392304Y-70154515D01*
X152059351Y-68153373D01*
X152601205Y-67611519D01*
X157070875Y-67611519D01*
X157070875Y-70093662D01*
X157074083Y-70142609D01*
X157099420Y-70237168D01*
X157148367Y-70321948D01*
X157217589Y-70391170D01*
X157302369Y-70440117D01*
X157396928Y-70465454D01*
X157494822Y-70465454D01*
X157589381Y-70440117D01*
X157674161Y-70391170D01*
X157743383Y-70321948D01*
X157792330Y-70237168D01*
X157817667Y-70142609D01*
X157820875Y-70093662D01*
X157820875Y-67236519D01*
X157817667Y-67187572D01*
X157792330Y-67093013D01*
X157743383Y-67008233D01*
X157674161Y-66939011D01*
X157589381Y-66890064D01*
X157494822Y-66864727D01*
X157445875Y-66861519D01*
X152445875Y-66861519D01*
X152396928Y-66864727D01*
X152396927Y-66864727D01*
X152371590Y-66871516D01*
X152302369Y-66890064D01*
X152217589Y-66939011D01*
X152217580Y-66939019D01*
X152180710Y-66971354D01*
X151466425Y-67685640D01*
X151453063Y-67700875D01*
X151448295Y-67705104D01*
X151445066Y-67709994D01*
X151434082Y-67722519D01*
X151415177Y-67755263D01*
X151394356Y-67786799D01*
X151388067Y-67802219D01*
X151385135Y-67807299D01*
X151383484Y-67813457D01*
X151375834Y-67832219D01*
X150661548Y-69975077D01*
X150649113Y-70022526D01*
X150648436Y-70033802D01*
X150645512Y-70044715D01*
X150642304Y-70093662D01*
X142239936Y-70093662D01*
X142239936Y-70044715D01*
X142214599Y-69950156D01*
X142165652Y-69865376D01*
X142096430Y-69796154D01*
X142011650Y-69747207D01*
X141917091Y-69721870D01*
X141868144Y-69718662D01*
X126868144Y-69718662D01*
X126819197Y-69721870D01*
X126724638Y-69747207D01*
X126639858Y-69796154D01*
X126570636Y-69865376D01*
X126521689Y-69950156D01*
X126496352Y-70044715D01*
X124826477Y-70044715D01*
X124826477Y-60759001D01*
X126496352Y-60759001D01*
X126496352Y-60856895D01*
X126521689Y-60951454D01*
X126570636Y-61036234D01*
X126639858Y-61105456D01*
X126724638Y-61154403D01*
X126819197Y-61179740D01*
X126868144Y-61182948D01*
X141493144Y-61182948D01*
X141493144Y-65093662D01*
X141496352Y-65142609D01*
X141521689Y-65237168D01*
X141570636Y-65321948D01*
X141639858Y-65391170D01*
X141724638Y-65440117D01*
X141819197Y-65465454D01*
X141917091Y-65465454D01*
X142011650Y-65440117D01*
X142096430Y-65391170D01*
X142165652Y-65321948D01*
X142214599Y-65237168D01*
X142239936Y-65142609D01*
X142243144Y-65093662D01*
X142243144Y-56522234D01*
X142239936Y-56473287D01*
X142214599Y-56378728D01*
X142165652Y-56293948D01*
X142096430Y-56224726D01*
X142011650Y-56175779D01*
X141917091Y-56150442D01*
X141819197Y-56150442D01*
X141724638Y-56175779D01*
X141639858Y-56224726D01*
X141570636Y-56293948D01*
X141521689Y-56378728D01*
X141496352Y-56473287D01*
X141493144Y-56522234D01*
X141493144Y-60432948D01*
X126868144Y-60432948D01*
X126819197Y-60436156D01*
X126724638Y-60461493D01*
X126639858Y-60510440D01*
X126570636Y-60579662D01*
X126521689Y-60664442D01*
X126496352Y-60759001D01*
X124826477Y-60759001D01*
X124826477Y-54483775D01*
X168058971Y-54483775D01*
X168058971Y-109278186D01*
G37*
D10*
G36*
X177284612Y-132678909D02*
G01*
X177316190Y-132742064D01*
X177316190Y-132814506D01*
X177284612Y-132877661D01*
X177221459Y-132909238D01*
X176863809Y-132909238D01*
X176863809Y-132647333D01*
X177221459Y-132647333D01*
X177284612Y-132678909D01*
G37*
G36*
X179590000Y-134323941D02*
G01*
X174402208Y-134323941D01*
X174402208Y-131862441D01*
X174652208Y-131862441D01*
X174664088Y-131909988D01*
X175140279Y-133243322D01*
X175142284Y-133247569D01*
X175143595Y-133252086D01*
X175334071Y-133728275D01*
X175356645Y-133771776D01*
X175357729Y-133772887D01*
X175358323Y-133774320D01*
X175389413Y-133812205D01*
X175484651Y-133907443D01*
X175503825Y-133923178D01*
X175508149Y-133928164D01*
X175515665Y-133932895D01*
X175522536Y-133938534D01*
X175528636Y-133941060D01*
X175549625Y-133954273D01*
X175740101Y-134049511D01*
X175785873Y-134067026D01*
X175883173Y-134073941D01*
X175975711Y-134043095D01*
X176049402Y-133979183D01*
X176093026Y-133891935D01*
X176099941Y-133794635D01*
X176069095Y-133702097D01*
X176005183Y-133628406D01*
X175963708Y-133602297D01*
X175809518Y-133525202D01*
X175779251Y-133494935D01*
X175642968Y-133154229D01*
X176015329Y-132111619D01*
X176363809Y-132111619D01*
X176363809Y-133159238D01*
X176368613Y-133208011D01*
X176405942Y-133298131D01*
X176474916Y-133367105D01*
X176565036Y-133404434D01*
X176662582Y-133404434D01*
X176704032Y-133387264D01*
X176738254Y-133400360D01*
X176747213Y-133400996D01*
X176755512Y-133404434D01*
X176804285Y-133409238D01*
X177280476Y-133409238D01*
X177329249Y-133404434D01*
X177337547Y-133400996D01*
X177346507Y-133400360D01*
X177392279Y-133382845D01*
X177582756Y-133287607D01*
X177590912Y-133282472D01*
X177594760Y-133281190D01*
X177599552Y-133277033D01*
X177624231Y-133261498D01*
X177644771Y-133237814D01*
X177668450Y-133217278D01*
X177683982Y-133192604D01*
X177688143Y-133187807D01*
X177689426Y-133183955D01*
X177694559Y-133175803D01*
X177709644Y-133145632D01*
X178078466Y-133145632D01*
X178092260Y-133242196D01*
X178141959Y-133326131D01*
X178219996Y-133384659D01*
X178314489Y-133408867D01*
X178411053Y-133395073D01*
X178494988Y-133345374D01*
X178528095Y-133309238D01*
X178840000Y-132893364D01*
X178840000Y-133159238D01*
X178844804Y-133208011D01*
X178882133Y-133298131D01*
X178951107Y-133367105D01*
X179041227Y-133404434D01*
X179138773Y-133404434D01*
X179228893Y-133367105D01*
X179297867Y-133298131D01*
X179335196Y-133208011D01*
X179340000Y-133159238D01*
X179340000Y-131159238D01*
X179335196Y-131110465D01*
X179297867Y-131020345D01*
X179228893Y-130951371D01*
X179138773Y-130914042D01*
X179041227Y-130914042D01*
X178951107Y-130951371D01*
X178882133Y-131020345D01*
X178844804Y-131110465D01*
X178840000Y-131159238D01*
X178840000Y-131984255D01*
X178504872Y-131649127D01*
X178466987Y-131618037D01*
X178376867Y-131580708D01*
X178279323Y-131580708D01*
X178189203Y-131618037D01*
X178120228Y-131687012D01*
X178082899Y-131777132D01*
X178082899Y-131874676D01*
X178120228Y-131964796D01*
X178151318Y-132002681D01*
X178569429Y-132420792D01*
X178128095Y-133009238D01*
X178102674Y-133051139D01*
X178078466Y-133145632D01*
X177709644Y-133145632D01*
X177789797Y-132985326D01*
X177807312Y-132939553D01*
X177807948Y-132930594D01*
X177811386Y-132922296D01*
X177816190Y-132873523D01*
X177816190Y-132683047D01*
X177811386Y-132634274D01*
X177807948Y-132625975D01*
X177807312Y-132617016D01*
X177789797Y-132571244D01*
X177694559Y-132380768D01*
X177689426Y-132372614D01*
X177688143Y-132368764D01*
X177683983Y-132363968D01*
X177668450Y-132339292D01*
X177644769Y-132318753D01*
X177624231Y-132295073D01*
X177599553Y-132279538D01*
X177594759Y-132275380D01*
X177590909Y-132274096D01*
X177582756Y-132268964D01*
X177392279Y-132173726D01*
X177346507Y-132156211D01*
X177337547Y-132155574D01*
X177329249Y-132152137D01*
X177280476Y-132147333D01*
X176875460Y-132147333D01*
X176895386Y-132107481D01*
X176958541Y-132075904D01*
X177221459Y-132075904D01*
X177359149Y-132144749D01*
X177404921Y-132162264D01*
X177502221Y-132169179D01*
X177594759Y-132138333D01*
X177668450Y-132074421D01*
X177712074Y-131987173D01*
X177718989Y-131889873D01*
X177688143Y-131797335D01*
X177624231Y-131723644D01*
X177582756Y-131697535D01*
X177392279Y-131602297D01*
X177346507Y-131584782D01*
X177337547Y-131584145D01*
X177329249Y-131580708D01*
X177280476Y-131575904D01*
X176899523Y-131575904D01*
X176850750Y-131580708D01*
X176842451Y-131584145D01*
X176833492Y-131584782D01*
X176787720Y-131602297D01*
X176597244Y-131697535D01*
X176589090Y-131702667D01*
X176585240Y-131703951D01*
X176580444Y-131708110D01*
X176555768Y-131723644D01*
X176535229Y-131747324D01*
X176511549Y-131767863D01*
X176496015Y-131792539D01*
X176491856Y-131797335D01*
X176490572Y-131801185D01*
X176485440Y-131809339D01*
X176390202Y-131999816D01*
X176372687Y-132045588D01*
X176372050Y-132054547D01*
X176368613Y-132062846D01*
X176363809Y-132111619D01*
X176015329Y-132111619D01*
X176087340Y-131909988D01*
X176099220Y-131862440D01*
X176094376Y-131765015D01*
X176052619Y-131676861D01*
X175980304Y-131611396D01*
X175888441Y-131578588D01*
X175791016Y-131583432D01*
X175702862Y-131625189D01*
X175637397Y-131697504D01*
X175616469Y-131741820D01*
X175375713Y-132415934D01*
X175134958Y-131741820D01*
X175114030Y-131697504D01*
X175048565Y-131625189D01*
X174960411Y-131583432D01*
X174862986Y-131578589D01*
X174771123Y-131611397D01*
X174698808Y-131676862D01*
X174657051Y-131765016D01*
X174652208Y-131862441D01*
X174402208Y-131862441D01*
X174402208Y-130664042D01*
X179590000Y-130664042D01*
X179590000Y-134323941D01*
G37*
D12*
X132354819Y-132846666D02*
X133069104Y-132846666D01*
X133069104Y-132846666D02*
X133211961Y-132799047D01*
X133211961Y-132799047D02*
X133307200Y-132703809D01*
X133307200Y-132703809D02*
X133354819Y-132560952D01*
X133354819Y-132560952D02*
X133354819Y-132465714D01*
X133354819Y-133846666D02*
X133354819Y-133275238D01*
X133354819Y-133560952D02*
X132354819Y-133560952D01*
X132354819Y-133560952D02*
X132497676Y-133465714D01*
X132497676Y-133465714D02*
X132592914Y-133370476D01*
X132592914Y-133370476D02*
X132640533Y-133275238D01*
X139074819Y-142541666D02*
X139789104Y-142541666D01*
X139789104Y-142541666D02*
X139931961Y-142494047D01*
X139931961Y-142494047D02*
X140027200Y-142398809D01*
X140027200Y-142398809D02*
X140074819Y-142255952D01*
X140074819Y-142255952D02*
X140074819Y-142160714D01*
X139170057Y-142970238D02*
X139122438Y-143017857D01*
X139122438Y-143017857D02*
X139074819Y-143113095D01*
X139074819Y-143113095D02*
X139074819Y-143351190D01*
X139074819Y-143351190D02*
X139122438Y-143446428D01*
X139122438Y-143446428D02*
X139170057Y-143494047D01*
X139170057Y-143494047D02*
X139265295Y-143541666D01*
X139265295Y-143541666D02*
X139360533Y-143541666D01*
X139360533Y-143541666D02*
X139503390Y-143494047D01*
X139503390Y-143494047D02*
X140074819Y-142922619D01*
X140074819Y-142922619D02*
X140074819Y-143541666D01*
D13*
X151165000Y-42505607D02*
X150915000Y-42505607D01*
X150807857Y-42898464D02*
X151165000Y-42898464D01*
X151165000Y-42898464D02*
X151165000Y-42148464D01*
X151165000Y-42148464D02*
X150807857Y-42148464D01*
X150486429Y-42898464D02*
X150486429Y-42148464D01*
X150129286Y-42898464D02*
X150129286Y-42148464D01*
X150129286Y-42148464D02*
X149700715Y-42898464D01*
X149700715Y-42898464D02*
X149700715Y-42148464D01*
X149343572Y-42827035D02*
X149307858Y-42862750D01*
X149307858Y-42862750D02*
X149343572Y-42898464D01*
X149343572Y-42898464D02*
X149379286Y-42862750D01*
X149379286Y-42862750D02*
X149343572Y-42827035D01*
X149343572Y-42827035D02*
X149343572Y-42898464D01*
X149343572Y-42434178D02*
X149307858Y-42469892D01*
X149307858Y-42469892D02*
X149343572Y-42505607D01*
X149343572Y-42505607D02*
X149379286Y-42469892D01*
X149379286Y-42469892D02*
X149343572Y-42434178D01*
X149343572Y-42434178D02*
X149343572Y-42505607D01*
X148307857Y-42469892D02*
X148379286Y-42434178D01*
X148379286Y-42434178D02*
X148415000Y-42398464D01*
X148415000Y-42398464D02*
X148450714Y-42327035D01*
X148450714Y-42327035D02*
X148450714Y-42291321D01*
X148450714Y-42291321D02*
X148415000Y-42219892D01*
X148415000Y-42219892D02*
X148379286Y-42184178D01*
X148379286Y-42184178D02*
X148307857Y-42148464D01*
X148307857Y-42148464D02*
X148165000Y-42148464D01*
X148165000Y-42148464D02*
X148093572Y-42184178D01*
X148093572Y-42184178D02*
X148057857Y-42219892D01*
X148057857Y-42219892D02*
X148022143Y-42291321D01*
X148022143Y-42291321D02*
X148022143Y-42327035D01*
X148022143Y-42327035D02*
X148057857Y-42398464D01*
X148057857Y-42398464D02*
X148093572Y-42434178D01*
X148093572Y-42434178D02*
X148165000Y-42469892D01*
X148165000Y-42469892D02*
X148307857Y-42469892D01*
X148307857Y-42469892D02*
X148379286Y-42505607D01*
X148379286Y-42505607D02*
X148415000Y-42541321D01*
X148415000Y-42541321D02*
X148450714Y-42612750D01*
X148450714Y-42612750D02*
X148450714Y-42755607D01*
X148450714Y-42755607D02*
X148415000Y-42827035D01*
X148415000Y-42827035D02*
X148379286Y-42862750D01*
X148379286Y-42862750D02*
X148307857Y-42898464D01*
X148307857Y-42898464D02*
X148165000Y-42898464D01*
X148165000Y-42898464D02*
X148093572Y-42862750D01*
X148093572Y-42862750D02*
X148057857Y-42827035D01*
X148057857Y-42827035D02*
X148022143Y-42755607D01*
X148022143Y-42755607D02*
X148022143Y-42612750D01*
X148022143Y-42612750D02*
X148057857Y-42541321D01*
X148057857Y-42541321D02*
X148093572Y-42505607D01*
X148093572Y-42505607D02*
X148165000Y-42469892D01*
X147379286Y-42398464D02*
X147379286Y-42898464D01*
X147557857Y-42112750D02*
X147736428Y-42648464D01*
X147736428Y-42648464D02*
X147272143Y-42648464D01*
X146986428Y-42612750D02*
X146415000Y-42612750D01*
X145736429Y-42398464D02*
X145736429Y-42898464D01*
X145915000Y-42112750D02*
X146093571Y-42648464D01*
X146093571Y-42648464D02*
X145629286Y-42648464D01*
X145022143Y-42398464D02*
X145022143Y-42898464D01*
X145200714Y-42112750D02*
X145379285Y-42648464D01*
X145379285Y-42648464D02*
X144915000Y-42648464D01*
X144664999Y-42219892D02*
X144629285Y-42184178D01*
X144629285Y-42184178D02*
X144557857Y-42148464D01*
X144557857Y-42148464D02*
X144379285Y-42148464D01*
X144379285Y-42148464D02*
X144307857Y-42184178D01*
X144307857Y-42184178D02*
X144272142Y-42219892D01*
X144272142Y-42219892D02*
X144236428Y-42291321D01*
X144236428Y-42291321D02*
X144236428Y-42362750D01*
X144236428Y-42362750D02*
X144272142Y-42469892D01*
X144272142Y-42469892D02*
X144700714Y-42898464D01*
X144700714Y-42898464D02*
X144236428Y-42898464D01*
X143807856Y-42469892D02*
X143879285Y-42434178D01*
X143879285Y-42434178D02*
X143914999Y-42398464D01*
X143914999Y-42398464D02*
X143950713Y-42327035D01*
X143950713Y-42327035D02*
X143950713Y-42291321D01*
X143950713Y-42291321D02*
X143914999Y-42219892D01*
X143914999Y-42219892D02*
X143879285Y-42184178D01*
X143879285Y-42184178D02*
X143807856Y-42148464D01*
X143807856Y-42148464D02*
X143664999Y-42148464D01*
X143664999Y-42148464D02*
X143593571Y-42184178D01*
X143593571Y-42184178D02*
X143557856Y-42219892D01*
X143557856Y-42219892D02*
X143522142Y-42291321D01*
X143522142Y-42291321D02*
X143522142Y-42327035D01*
X143522142Y-42327035D02*
X143557856Y-42398464D01*
X143557856Y-42398464D02*
X143593571Y-42434178D01*
X143593571Y-42434178D02*
X143664999Y-42469892D01*
X143664999Y-42469892D02*
X143807856Y-42469892D01*
X143807856Y-42469892D02*
X143879285Y-42505607D01*
X143879285Y-42505607D02*
X143914999Y-42541321D01*
X143914999Y-42541321D02*
X143950713Y-42612750D01*
X143950713Y-42612750D02*
X143950713Y-42755607D01*
X143950713Y-42755607D02*
X143914999Y-42827035D01*
X143914999Y-42827035D02*
X143879285Y-42862750D01*
X143879285Y-42862750D02*
X143807856Y-42898464D01*
X143807856Y-42898464D02*
X143664999Y-42898464D01*
X143664999Y-42898464D02*
X143593571Y-42862750D01*
X143593571Y-42862750D02*
X143557856Y-42827035D01*
X143557856Y-42827035D02*
X143522142Y-42755607D01*
X143522142Y-42755607D02*
X143522142Y-42612750D01*
X143522142Y-42612750D02*
X143557856Y-42541321D01*
X143557856Y-42541321D02*
X143593571Y-42505607D01*
X143593571Y-42505607D02*
X143664999Y-42469892D01*
X143057856Y-42148464D02*
X142986427Y-42148464D01*
X142986427Y-42148464D02*
X142914999Y-42184178D01*
X142914999Y-42184178D02*
X142879285Y-42219892D01*
X142879285Y-42219892D02*
X142843570Y-42291321D01*
X142843570Y-42291321D02*
X142807856Y-42434178D01*
X142807856Y-42434178D02*
X142807856Y-42612750D01*
X142807856Y-42612750D02*
X142843570Y-42755607D01*
X142843570Y-42755607D02*
X142879285Y-42827035D01*
X142879285Y-42827035D02*
X142914999Y-42862750D01*
X142914999Y-42862750D02*
X142986427Y-42898464D01*
X142986427Y-42898464D02*
X143057856Y-42898464D01*
X143057856Y-42898464D02*
X143129285Y-42862750D01*
X143129285Y-42862750D02*
X143164999Y-42827035D01*
X143164999Y-42827035D02*
X143200713Y-42755607D01*
X143200713Y-42755607D02*
X143236427Y-42612750D01*
X143236427Y-42612750D02*
X143236427Y-42434178D01*
X143236427Y-42434178D02*
X143200713Y-42291321D01*
X143200713Y-42291321D02*
X143164999Y-42219892D01*
X143164999Y-42219892D02*
X143129285Y-42184178D01*
X143129285Y-42184178D02*
X143057856Y-42148464D01*
X142522141Y-42219892D02*
X142486427Y-42184178D01*
X142486427Y-42184178D02*
X142414999Y-42148464D01*
X142414999Y-42148464D02*
X142236427Y-42148464D01*
X142236427Y-42148464D02*
X142164999Y-42184178D01*
X142164999Y-42184178D02*
X142129284Y-42219892D01*
X142129284Y-42219892D02*
X142093570Y-42291321D01*
X142093570Y-42291321D02*
X142093570Y-42362750D01*
X142093570Y-42362750D02*
X142129284Y-42469892D01*
X142129284Y-42469892D02*
X142557856Y-42898464D01*
X142557856Y-42898464D02*
X142093570Y-42898464D01*
X141450713Y-42398464D02*
X141450713Y-42898464D01*
X141629284Y-42112750D02*
X141807855Y-42648464D01*
X141807855Y-42648464D02*
X141343570Y-42648464D01*
D14*
X152968571Y-29546928D02*
X152968571Y-28046928D01*
X152968571Y-28046928D02*
X152611428Y-28046928D01*
X152611428Y-28046928D02*
X152397142Y-28118357D01*
X152397142Y-28118357D02*
X152254285Y-28261214D01*
X152254285Y-28261214D02*
X152182856Y-28404071D01*
X152182856Y-28404071D02*
X152111428Y-28689785D01*
X152111428Y-28689785D02*
X152111428Y-28904071D01*
X152111428Y-28904071D02*
X152182856Y-29189785D01*
X152182856Y-29189785D02*
X152254285Y-29332642D01*
X152254285Y-29332642D02*
X152397142Y-29475500D01*
X152397142Y-29475500D02*
X152611428Y-29546928D01*
X152611428Y-29546928D02*
X152968571Y-29546928D01*
X150897142Y-29475500D02*
X151039999Y-29546928D01*
X151039999Y-29546928D02*
X151325714Y-29546928D01*
X151325714Y-29546928D02*
X151468571Y-29475500D01*
X151468571Y-29475500D02*
X151539999Y-29332642D01*
X151539999Y-29332642D02*
X151539999Y-28761214D01*
X151539999Y-28761214D02*
X151468571Y-28618357D01*
X151468571Y-28618357D02*
X151325714Y-28546928D01*
X151325714Y-28546928D02*
X151039999Y-28546928D01*
X151039999Y-28546928D02*
X150897142Y-28618357D01*
X150897142Y-28618357D02*
X150825714Y-28761214D01*
X150825714Y-28761214D02*
X150825714Y-28904071D01*
X150825714Y-28904071D02*
X151539999Y-29046928D01*
X150254285Y-29475500D02*
X150111428Y-29546928D01*
X150111428Y-29546928D02*
X149825714Y-29546928D01*
X149825714Y-29546928D02*
X149682857Y-29475500D01*
X149682857Y-29475500D02*
X149611428Y-29332642D01*
X149611428Y-29332642D02*
X149611428Y-29261214D01*
X149611428Y-29261214D02*
X149682857Y-29118357D01*
X149682857Y-29118357D02*
X149825714Y-29046928D01*
X149825714Y-29046928D02*
X150040000Y-29046928D01*
X150040000Y-29046928D02*
X150182857Y-28975500D01*
X150182857Y-28975500D02*
X150254285Y-28832642D01*
X150254285Y-28832642D02*
X150254285Y-28761214D01*
X150254285Y-28761214D02*
X150182857Y-28618357D01*
X150182857Y-28618357D02*
X150040000Y-28546928D01*
X150040000Y-28546928D02*
X149825714Y-28546928D01*
X149825714Y-28546928D02*
X149682857Y-28618357D01*
X148968571Y-29546928D02*
X148968571Y-28546928D01*
X148968571Y-28046928D02*
X149039999Y-28118357D01*
X149039999Y-28118357D02*
X148968571Y-28189785D01*
X148968571Y-28189785D02*
X148897142Y-28118357D01*
X148897142Y-28118357D02*
X148968571Y-28046928D01*
X148968571Y-28046928D02*
X148968571Y-28189785D01*
X147611428Y-28546928D02*
X147611428Y-29761214D01*
X147611428Y-29761214D02*
X147682856Y-29904071D01*
X147682856Y-29904071D02*
X147754285Y-29975500D01*
X147754285Y-29975500D02*
X147897142Y-30046928D01*
X147897142Y-30046928D02*
X148111428Y-30046928D01*
X148111428Y-30046928D02*
X148254285Y-29975500D01*
X147611428Y-29475500D02*
X147754285Y-29546928D01*
X147754285Y-29546928D02*
X148039999Y-29546928D01*
X148039999Y-29546928D02*
X148182856Y-29475500D01*
X148182856Y-29475500D02*
X148254285Y-29404071D01*
X148254285Y-29404071D02*
X148325713Y-29261214D01*
X148325713Y-29261214D02*
X148325713Y-28832642D01*
X148325713Y-28832642D02*
X148254285Y-28689785D01*
X148254285Y-28689785D02*
X148182856Y-28618357D01*
X148182856Y-28618357D02*
X148039999Y-28546928D01*
X148039999Y-28546928D02*
X147754285Y-28546928D01*
X147754285Y-28546928D02*
X147611428Y-28618357D01*
X146897142Y-28546928D02*
X146897142Y-29546928D01*
X146897142Y-28689785D02*
X146825713Y-28618357D01*
X146825713Y-28618357D02*
X146682856Y-28546928D01*
X146682856Y-28546928D02*
X146468570Y-28546928D01*
X146468570Y-28546928D02*
X146325713Y-28618357D01*
X146325713Y-28618357D02*
X146254285Y-28761214D01*
X146254285Y-28761214D02*
X146254285Y-29546928D01*
X144968570Y-29475500D02*
X145111427Y-29546928D01*
X145111427Y-29546928D02*
X145397142Y-29546928D01*
X145397142Y-29546928D02*
X145539999Y-29475500D01*
X145539999Y-29475500D02*
X145611427Y-29332642D01*
X145611427Y-29332642D02*
X145611427Y-28761214D01*
X145611427Y-28761214D02*
X145539999Y-28618357D01*
X145539999Y-28618357D02*
X145397142Y-28546928D01*
X145397142Y-28546928D02*
X145111427Y-28546928D01*
X145111427Y-28546928D02*
X144968570Y-28618357D01*
X144968570Y-28618357D02*
X144897142Y-28761214D01*
X144897142Y-28761214D02*
X144897142Y-28904071D01*
X144897142Y-28904071D02*
X145611427Y-29046928D01*
X143611428Y-29546928D02*
X143611428Y-28046928D01*
X143611428Y-29475500D02*
X143754285Y-29546928D01*
X143754285Y-29546928D02*
X144039999Y-29546928D01*
X144039999Y-29546928D02*
X144182856Y-29475500D01*
X144182856Y-29475500D02*
X144254285Y-29404071D01*
X144254285Y-29404071D02*
X144325713Y-29261214D01*
X144325713Y-29261214D02*
X144325713Y-28832642D01*
X144325713Y-28832642D02*
X144254285Y-28689785D01*
X144254285Y-28689785D02*
X144182856Y-28618357D01*
X144182856Y-28618357D02*
X144039999Y-28546928D01*
X144039999Y-28546928D02*
X143754285Y-28546928D01*
X143754285Y-28546928D02*
X143611428Y-28618357D01*
X141825713Y-29118357D02*
X141111428Y-29118357D01*
X141968570Y-29546928D02*
X141468570Y-28046928D01*
X141468570Y-28046928D02*
X140968570Y-29546928D01*
X140682856Y-28546928D02*
X140111428Y-28546928D01*
X140468571Y-28046928D02*
X140468571Y-29332642D01*
X140468571Y-29332642D02*
X140397142Y-29475500D01*
X140397142Y-29475500D02*
X140254285Y-29546928D01*
X140254285Y-29546928D02*
X140111428Y-29546928D01*
X139611428Y-29404071D02*
X139539999Y-29475500D01*
X139539999Y-29475500D02*
X139611428Y-29546928D01*
X139611428Y-29546928D02*
X139682856Y-29475500D01*
X139682856Y-29475500D02*
X139611428Y-29404071D01*
X139611428Y-29404071D02*
X139611428Y-29546928D01*
X139611428Y-28618357D02*
X139539999Y-28689785D01*
X139539999Y-28689785D02*
X139611428Y-28761214D01*
X139611428Y-28761214D02*
X139682856Y-28689785D01*
X139682856Y-28689785D02*
X139611428Y-28618357D01*
X139611428Y-28618357D02*
X139611428Y-28761214D01*
D15*
X153623334Y-40114619D02*
X154099524Y-40114619D01*
X154099524Y-40114619D02*
X154147143Y-40590809D01*
X154147143Y-40590809D02*
X154099524Y-40543190D01*
X154099524Y-40543190D02*
X154004286Y-40495571D01*
X154004286Y-40495571D02*
X153766191Y-40495571D01*
X153766191Y-40495571D02*
X153670953Y-40543190D01*
X153670953Y-40543190D02*
X153623334Y-40590809D01*
X153623334Y-40590809D02*
X153575715Y-40686047D01*
X153575715Y-40686047D02*
X153575715Y-40924142D01*
X153575715Y-40924142D02*
X153623334Y-41019380D01*
X153623334Y-41019380D02*
X153670953Y-41067000D01*
X153670953Y-41067000D02*
X153766191Y-41114619D01*
X153766191Y-41114619D02*
X154004286Y-41114619D01*
X154004286Y-41114619D02*
X154099524Y-41067000D01*
X154099524Y-41067000D02*
X154147143Y-41019380D01*
X152956667Y-40114619D02*
X152861429Y-40114619D01*
X152861429Y-40114619D02*
X152766191Y-40162238D01*
X152766191Y-40162238D02*
X152718572Y-40209857D01*
X152718572Y-40209857D02*
X152670953Y-40305095D01*
X152670953Y-40305095D02*
X152623334Y-40495571D01*
X152623334Y-40495571D02*
X152623334Y-40733666D01*
X152623334Y-40733666D02*
X152670953Y-40924142D01*
X152670953Y-40924142D02*
X152718572Y-41019380D01*
X152718572Y-41019380D02*
X152766191Y-41067000D01*
X152766191Y-41067000D02*
X152861429Y-41114619D01*
X152861429Y-41114619D02*
X152956667Y-41114619D01*
X152956667Y-41114619D02*
X153051905Y-41067000D01*
X153051905Y-41067000D02*
X153099524Y-41019380D01*
X153099524Y-41019380D02*
X153147143Y-40924142D01*
X153147143Y-40924142D02*
X153194762Y-40733666D01*
X153194762Y-40733666D02*
X153194762Y-40495571D01*
X153194762Y-40495571D02*
X153147143Y-40305095D01*
X153147143Y-40305095D02*
X153099524Y-40209857D01*
X153099524Y-40209857D02*
X153051905Y-40162238D01*
X153051905Y-40162238D02*
X152956667Y-40114619D01*
X151670953Y-41114619D02*
X152242381Y-41114619D01*
X151956667Y-41114619D02*
X151956667Y-40114619D01*
X151956667Y-40114619D02*
X152051905Y-40257476D01*
X152051905Y-40257476D02*
X152147143Y-40352714D01*
X152147143Y-40352714D02*
X152242381Y-40400333D01*
X150956667Y-41495571D02*
X151004286Y-41447952D01*
X151004286Y-41447952D02*
X151099524Y-41305095D01*
X151099524Y-41305095D02*
X151147143Y-41209857D01*
X151147143Y-41209857D02*
X151194762Y-41067000D01*
X151194762Y-41067000D02*
X151242381Y-40828904D01*
X151242381Y-40828904D02*
X151242381Y-40638428D01*
X151242381Y-40638428D02*
X151194762Y-40400333D01*
X151194762Y-40400333D02*
X151147143Y-40257476D01*
X151147143Y-40257476D02*
X151099524Y-40162238D01*
X151099524Y-40162238D02*
X151004286Y-40019380D01*
X151004286Y-40019380D02*
X150956667Y-39971761D01*
X150147143Y-41067000D02*
X150242381Y-41114619D01*
X150242381Y-41114619D02*
X150432857Y-41114619D01*
X150432857Y-41114619D02*
X150528095Y-41067000D01*
X150528095Y-41067000D02*
X150575714Y-41019380D01*
X150575714Y-41019380D02*
X150623333Y-40924142D01*
X150623333Y-40924142D02*
X150623333Y-40638428D01*
X150623333Y-40638428D02*
X150575714Y-40543190D01*
X150575714Y-40543190D02*
X150528095Y-40495571D01*
X150528095Y-40495571D02*
X150432857Y-40447952D01*
X150432857Y-40447952D02*
X150242381Y-40447952D01*
X150242381Y-40447952D02*
X150147143Y-40495571D01*
X149813809Y-41495571D02*
X149766190Y-41447952D01*
X149766190Y-41447952D02*
X149670952Y-41305095D01*
X149670952Y-41305095D02*
X149623333Y-41209857D01*
X149623333Y-41209857D02*
X149575714Y-41067000D01*
X149575714Y-41067000D02*
X149528095Y-40828904D01*
X149528095Y-40828904D02*
X149528095Y-40638428D01*
X149528095Y-40638428D02*
X149575714Y-40400333D01*
X149575714Y-40400333D02*
X149623333Y-40257476D01*
X149623333Y-40257476D02*
X149670952Y-40162238D01*
X149670952Y-40162238D02*
X149766190Y-40019380D01*
X149766190Y-40019380D02*
X149813809Y-39971761D01*
X148766190Y-41495571D02*
X148813809Y-41447952D01*
X148813809Y-41447952D02*
X148909047Y-41305095D01*
X148909047Y-41305095D02*
X148956666Y-41209857D01*
X148956666Y-41209857D02*
X149004285Y-41067000D01*
X149004285Y-41067000D02*
X149051904Y-40828904D01*
X149051904Y-40828904D02*
X149051904Y-40638428D01*
X149051904Y-40638428D02*
X149004285Y-40400333D01*
X149004285Y-40400333D02*
X148956666Y-40257476D01*
X148956666Y-40257476D02*
X148909047Y-40162238D01*
X148909047Y-40162238D02*
X148813809Y-40019380D01*
X148813809Y-40019380D02*
X148766190Y-39971761D01*
X148480475Y-40114619D02*
X147861428Y-40114619D01*
X147861428Y-40114619D02*
X148194761Y-40495571D01*
X148194761Y-40495571D02*
X148051904Y-40495571D01*
X148051904Y-40495571D02*
X147956666Y-40543190D01*
X147956666Y-40543190D02*
X147909047Y-40590809D01*
X147909047Y-40590809D02*
X147861428Y-40686047D01*
X147861428Y-40686047D02*
X147861428Y-40924142D01*
X147861428Y-40924142D02*
X147909047Y-41019380D01*
X147909047Y-41019380D02*
X147956666Y-41067000D01*
X147956666Y-41067000D02*
X148051904Y-41114619D01*
X148051904Y-41114619D02*
X148337618Y-41114619D01*
X148337618Y-41114619D02*
X148432856Y-41067000D01*
X148432856Y-41067000D02*
X148480475Y-41019380D01*
X147528094Y-41495571D02*
X147480475Y-41447952D01*
X147480475Y-41447952D02*
X147385237Y-41305095D01*
X147385237Y-41305095D02*
X147337618Y-41209857D01*
X147337618Y-41209857D02*
X147289999Y-41067000D01*
X147289999Y-41067000D02*
X147242380Y-40828904D01*
X147242380Y-40828904D02*
X147242380Y-40638428D01*
X147242380Y-40638428D02*
X147289999Y-40400333D01*
X147289999Y-40400333D02*
X147337618Y-40257476D01*
X147337618Y-40257476D02*
X147385237Y-40162238D01*
X147385237Y-40162238D02*
X147480475Y-40019380D01*
X147480475Y-40019380D02*
X147528094Y-39971761D01*
X146004284Y-40447952D02*
X146004284Y-41114619D01*
X146004284Y-40543190D02*
X145956665Y-40495571D01*
X145956665Y-40495571D02*
X145861427Y-40447952D01*
X145861427Y-40447952D02*
X145718570Y-40447952D01*
X145718570Y-40447952D02*
X145623332Y-40495571D01*
X145623332Y-40495571D02*
X145575713Y-40590809D01*
X145575713Y-40590809D02*
X145575713Y-41114619D01*
X144956665Y-41114619D02*
X145051903Y-41067000D01*
X145051903Y-41067000D02*
X145099522Y-41019380D01*
X145099522Y-41019380D02*
X145147141Y-40924142D01*
X145147141Y-40924142D02*
X145147141Y-40638428D01*
X145147141Y-40638428D02*
X145099522Y-40543190D01*
X145099522Y-40543190D02*
X145051903Y-40495571D01*
X145051903Y-40495571D02*
X144956665Y-40447952D01*
X144956665Y-40447952D02*
X144813808Y-40447952D01*
X144813808Y-40447952D02*
X144718570Y-40495571D01*
X144718570Y-40495571D02*
X144670951Y-40543190D01*
X144670951Y-40543190D02*
X144623332Y-40638428D01*
X144623332Y-40638428D02*
X144623332Y-40924142D01*
X144623332Y-40924142D02*
X144670951Y-41019380D01*
X144670951Y-41019380D02*
X144718570Y-41067000D01*
X144718570Y-41067000D02*
X144813808Y-41114619D01*
X144813808Y-41114619D02*
X144956665Y-41114619D01*
X144194760Y-40447952D02*
X144194760Y-41114619D01*
X144194760Y-40543190D02*
X144147141Y-40495571D01*
X144147141Y-40495571D02*
X144051903Y-40447952D01*
X144051903Y-40447952D02*
X143909046Y-40447952D01*
X143909046Y-40447952D02*
X143813808Y-40495571D01*
X143813808Y-40495571D02*
X143766189Y-40590809D01*
X143766189Y-40590809D02*
X143766189Y-41114619D01*
X143289998Y-40733666D02*
X142528094Y-40733666D01*
X142051903Y-40447952D02*
X142051903Y-41447952D01*
X142051903Y-40495571D02*
X141956665Y-40447952D01*
X141956665Y-40447952D02*
X141766189Y-40447952D01*
X141766189Y-40447952D02*
X141670951Y-40495571D01*
X141670951Y-40495571D02*
X141623332Y-40543190D01*
X141623332Y-40543190D02*
X141575713Y-40638428D01*
X141575713Y-40638428D02*
X141575713Y-40924142D01*
X141575713Y-40924142D02*
X141623332Y-41019380D01*
X141623332Y-41019380D02*
X141670951Y-41067000D01*
X141670951Y-41067000D02*
X141766189Y-41114619D01*
X141766189Y-41114619D02*
X141956665Y-41114619D01*
X141956665Y-41114619D02*
X142051903Y-41067000D01*
X141147141Y-41114619D02*
X141147141Y-40447952D01*
X141147141Y-40638428D02*
X141099522Y-40543190D01*
X141099522Y-40543190D02*
X141051903Y-40495571D01*
X141051903Y-40495571D02*
X140956665Y-40447952D01*
X140956665Y-40447952D02*
X140861427Y-40447952D01*
X140385236Y-41114619D02*
X140480474Y-41067000D01*
X140480474Y-41067000D02*
X140528093Y-41019380D01*
X140528093Y-41019380D02*
X140575712Y-40924142D01*
X140575712Y-40924142D02*
X140575712Y-40638428D01*
X140575712Y-40638428D02*
X140528093Y-40543190D01*
X140528093Y-40543190D02*
X140480474Y-40495571D01*
X140480474Y-40495571D02*
X140385236Y-40447952D01*
X140385236Y-40447952D02*
X140242379Y-40447952D01*
X140242379Y-40447952D02*
X140147141Y-40495571D01*
X140147141Y-40495571D02*
X140099522Y-40543190D01*
X140099522Y-40543190D02*
X140051903Y-40638428D01*
X140051903Y-40638428D02*
X140051903Y-40924142D01*
X140051903Y-40924142D02*
X140099522Y-41019380D01*
X140099522Y-41019380D02*
X140147141Y-41067000D01*
X140147141Y-41067000D02*
X140242379Y-41114619D01*
X140242379Y-41114619D02*
X140385236Y-41114619D01*
X139766188Y-40447952D02*
X139385236Y-40447952D01*
X139623331Y-41114619D02*
X139623331Y-40257476D01*
X139623331Y-40257476D02*
X139575712Y-40162238D01*
X139575712Y-40162238D02*
X139480474Y-40114619D01*
X139480474Y-40114619D02*
X139385236Y-40114619D01*
X139051902Y-41114619D02*
X139051902Y-40447952D01*
X139051902Y-40114619D02*
X139099521Y-40162238D01*
X139099521Y-40162238D02*
X139051902Y-40209857D01*
X139051902Y-40209857D02*
X139004283Y-40162238D01*
X139004283Y-40162238D02*
X139051902Y-40114619D01*
X139051902Y-40114619D02*
X139051902Y-40209857D01*
X138718569Y-40447952D02*
X138337617Y-40447952D01*
X138575712Y-40114619D02*
X138575712Y-40971761D01*
X138575712Y-40971761D02*
X138528093Y-41067000D01*
X138528093Y-41067000D02*
X138432855Y-41114619D01*
X138432855Y-41114619D02*
X138337617Y-41114619D01*
D16*
G04 #@! TO.C,J1*
X133900000Y-131850000D02*
X135230000Y-131850000D01*
X133900000Y-133180000D02*
X133900000Y-131850000D01*
X136500000Y-134510000D02*
X136500000Y-131850000D01*
X154340000Y-131850000D02*
X136500000Y-131850000D01*
X154340000Y-134510000D02*
X136500000Y-134510000D01*
X154340000Y-134510000D02*
X154340000Y-131850000D01*
G04 #@! TO.C,J2*
X140560000Y-141200000D02*
X140560000Y-143860000D01*
X140560000Y-143860000D02*
X150840000Y-143860000D01*
X140620000Y-135950000D02*
X141890000Y-135950000D01*
X140620000Y-137220000D02*
X140620000Y-135950000D01*
X141510000Y-138717071D02*
X141510000Y-138330000D01*
X141510000Y-141200000D02*
X141510000Y-140802929D01*
X141510000Y-149860000D02*
X141510000Y-143860000D01*
X141570000Y-149860000D02*
X141570000Y-143860000D01*
X141690000Y-149860000D02*
X141690000Y-143860000D01*
X141810000Y-149860000D02*
X141810000Y-143860000D01*
X141930000Y-149860000D02*
X141930000Y-143860000D01*
X142050000Y-149860000D02*
X142050000Y-143860000D01*
X142170000Y-149860000D02*
X142170000Y-143860000D01*
X142270000Y-138717071D02*
X142270000Y-138330000D01*
X142270000Y-141200000D02*
X142270000Y-140802929D01*
X142270000Y-143860000D02*
X142270000Y-149860000D01*
X142270000Y-149860000D02*
X141510000Y-149860000D01*
X143160000Y-143860000D02*
X143160000Y-141200000D01*
X144050000Y-138717071D02*
X144050000Y-138262929D01*
X144050000Y-141200000D02*
X144050000Y-140802929D01*
X144050000Y-149860000D02*
X144050000Y-143860000D01*
X144810000Y-138717071D02*
X144810000Y-138262929D01*
X144810000Y-141200000D02*
X144810000Y-140802929D01*
X144810000Y-143860000D02*
X144810000Y-149860000D01*
X144810000Y-149860000D02*
X144050000Y-149860000D01*
X145700000Y-143860000D02*
X145700000Y-141200000D01*
X146590000Y-138717071D02*
X146590000Y-138262929D01*
X146590000Y-141200000D02*
X146590000Y-140802929D01*
X146590000Y-149860000D02*
X146590000Y-143860000D01*
X147350000Y-138717071D02*
X147350000Y-138262929D01*
X147350000Y-141200000D02*
X147350000Y-140802929D01*
X147350000Y-143860000D02*
X147350000Y-149860000D01*
X147350000Y-149860000D02*
X146590000Y-149860000D01*
X148240000Y-143860000D02*
X148240000Y-141200000D01*
X149130000Y-138717071D02*
X149130000Y-138262929D01*
X149130000Y-141200000D02*
X149130000Y-140802929D01*
X149130000Y-149860000D02*
X149130000Y-143860000D01*
X149890000Y-138717071D02*
X149890000Y-138262929D01*
X149890000Y-141200000D02*
X149890000Y-140802929D01*
X149890000Y-143860000D02*
X149890000Y-149860000D01*
X149890000Y-149860000D02*
X149130000Y-149860000D01*
X150840000Y-141200000D02*
X140560000Y-141200000D01*
X150840000Y-143860000D02*
X150840000Y-141200000D01*
D17*
G04 #@! TO.C,REF\u002A\u002A*
G36*
X140186418Y-34884866D02*
G01*
X140186418Y-35664210D01*
X140025299Y-35652553D01*
X139864179Y-35640895D01*
X139853917Y-34873209D01*
X139843654Y-34105522D01*
X140015036Y-34105522D01*
X140186418Y-34105522D01*
X140186418Y-34884866D01*
G37*
G36*
X141323732Y-32627015D02*
G01*
X141323732Y-33612686D01*
X141039403Y-33612686D01*
X140755075Y-33612686D01*
X140755075Y-32627015D01*
X140755075Y-31641343D01*
X141039403Y-31641343D01*
X141323732Y-31641343D01*
X141323732Y-32627015D01*
G37*
G36*
X138252985Y-31868806D02*
G01*
X138252985Y-32096268D01*
X138006567Y-32096268D01*
X137760149Y-32096268D01*
X137760149Y-32854477D01*
X137760149Y-33612686D01*
X137475821Y-33612686D01*
X137191493Y-33612686D01*
X137191493Y-32854477D01*
X137191493Y-32096268D01*
X136964030Y-32096268D01*
X136736567Y-32096268D01*
X136736567Y-31868806D01*
X136736567Y-31641343D01*
X137494776Y-31641343D01*
X138252985Y-31641343D01*
X138252985Y-31868806D01*
G37*
G36*
X147237761Y-34218314D02*
G01*
X147237966Y-34306232D01*
X147238482Y-34361418D01*
X147216707Y-34375748D01*
X147137624Y-34394184D01*
X147020497Y-34408806D01*
X146801791Y-34427761D01*
X146791364Y-35045939D01*
X146780937Y-35664117D01*
X146620767Y-35652506D01*
X146460597Y-35640895D01*
X146450181Y-35024850D01*
X146439764Y-34408806D01*
X146210952Y-34408806D01*
X145982140Y-34408806D01*
X145993906Y-34266641D01*
X146005672Y-34124477D01*
X146621717Y-34114061D01*
X147237761Y-34103644D01*
X147237761Y-34218314D01*
G37*
G36*
X140375970Y-32625642D02*
G01*
X140375970Y-33612686D01*
X140129552Y-33612686D01*
X139883135Y-33612686D01*
X139882477Y-32958731D01*
X139881819Y-32304776D01*
X139547300Y-32949253D01*
X139212781Y-33593731D01*
X138846615Y-33604581D01*
X138480448Y-33615432D01*
X138480448Y-32628387D01*
X138480448Y-31641343D01*
X138726866Y-31641343D01*
X138973284Y-31641343D01*
X138973921Y-32295298D01*
X138974559Y-32949253D01*
X139311349Y-32304776D01*
X139648140Y-31660298D01*
X140012055Y-31649448D01*
X140375970Y-31638597D01*
X140375970Y-32625642D01*
G37*
G36*
X144394478Y-34257164D02*
G01*
X144394478Y-34408806D01*
X144167015Y-34408806D01*
X143939552Y-34408806D01*
X143939552Y-35009054D01*
X143938989Y-35135577D01*
X143935792Y-35326873D01*
X143930245Y-35482791D01*
X143922892Y-35589853D01*
X143914279Y-35634577D01*
X143908243Y-35638689D01*
X143844488Y-35653756D01*
X143744621Y-35659850D01*
X143600237Y-35659850D01*
X143589820Y-35043806D01*
X143579403Y-34427761D01*
X143361418Y-34416391D01*
X143143433Y-34405022D01*
X143143433Y-34255272D01*
X143143433Y-34105522D01*
X143768955Y-34105522D01*
X144394478Y-34105522D01*
X144394478Y-34257164D01*
G37*
G36*
X139345852Y-34113043D02*
G01*
X139522985Y-34124477D01*
X139533330Y-34843608D01*
X139533407Y-34849013D01*
X139535659Y-35076750D01*
X139535810Y-35279569D01*
X139534000Y-35444746D01*
X139530365Y-35559562D01*
X139525042Y-35611295D01*
X139520780Y-35618598D01*
X139460703Y-35648373D01*
X139354711Y-35659850D01*
X139203012Y-35659850D01*
X139192402Y-35179479D01*
X139181791Y-34699107D01*
X138897463Y-35170001D01*
X138613135Y-35640895D01*
X138433060Y-35652450D01*
X138252985Y-35664005D01*
X138252985Y-34884763D01*
X138252985Y-34105522D01*
X138422415Y-34105522D01*
X138591846Y-34105522D01*
X138602490Y-34568350D01*
X138613135Y-35031179D01*
X138890927Y-34566393D01*
X139168720Y-34101608D01*
X139345852Y-34113043D01*
G37*
G36*
X141589105Y-34857413D02*
G01*
X141589074Y-34894574D01*
X141587491Y-35122737D01*
X141583788Y-35322731D01*
X141578352Y-35482644D01*
X141571570Y-35590564D01*
X141563831Y-35634577D01*
X141557546Y-35638809D01*
X141493416Y-35653794D01*
X141393234Y-35659850D01*
X141247911Y-35659850D01*
X141247911Y-35417447D01*
X141247911Y-35175043D01*
X140945436Y-35161307D01*
X140906215Y-35159327D01*
X140721008Y-35139525D01*
X140596264Y-35097144D01*
X140519372Y-35020754D01*
X140477718Y-34898927D01*
X140458690Y-34720233D01*
X140457954Y-34560597D01*
X140479019Y-34427761D01*
X140811941Y-34427761D01*
X140811941Y-34636268D01*
X140811941Y-34844776D01*
X141029926Y-34856145D01*
X141247911Y-34867515D01*
X141247911Y-34636268D01*
X141247911Y-34405022D01*
X141029926Y-34416391D01*
X140811941Y-34427761D01*
X140479019Y-34427761D01*
X140489265Y-34363153D01*
X140557628Y-34222011D01*
X140660933Y-34143191D01*
X140712568Y-34131448D01*
X140833521Y-34118054D01*
X140994395Y-34108907D01*
X141174558Y-34105522D01*
X141589105Y-34105522D01*
X141589105Y-34636268D01*
X141589105Y-34857413D01*
G37*
G36*
X144925224Y-32627015D02*
G01*
X144925224Y-33612686D01*
X144640896Y-33612686D01*
X144356567Y-33612686D01*
X144356567Y-33295713D01*
X144356567Y-32978739D01*
X144130059Y-32958200D01*
X143949756Y-32927090D01*
X143745517Y-32839582D01*
X143597509Y-32702254D01*
X143507447Y-32516872D01*
X143477045Y-32285205D01*
X143478328Y-32259754D01*
X144019972Y-32259754D01*
X144035857Y-32333481D01*
X144108426Y-32420230D01*
X144113515Y-32425209D01*
X144199946Y-32487579D01*
X144279023Y-32513283D01*
X144307660Y-32510889D01*
X144339311Y-32487777D01*
X144353373Y-32425096D01*
X144356567Y-32304776D01*
X144356567Y-32096268D01*
X144225215Y-32096268D01*
X144121267Y-32111705D01*
X144054618Y-32169597D01*
X144054496Y-32169823D01*
X144019972Y-32259754D01*
X143478328Y-32259754D01*
X143483219Y-32162744D01*
X143530367Y-31976476D01*
X143629524Y-31835094D01*
X143787333Y-31726641D01*
X143809514Y-31715645D01*
X143888012Y-31682865D01*
X143973036Y-31661307D01*
X144081901Y-31648708D01*
X144231924Y-31642807D01*
X144440421Y-31641343D01*
X144925224Y-31641343D01*
X144925224Y-32304776D01*
X144925224Y-32627015D01*
G37*
G36*
X151483732Y-32627015D02*
G01*
X151483732Y-33612686D01*
X151199403Y-33612686D01*
X150915075Y-33612686D01*
X150915075Y-33290447D01*
X150915075Y-32968209D01*
X150769090Y-32968209D01*
X150749759Y-32968043D01*
X150506398Y-32933105D01*
X150308649Y-32840501D01*
X150161375Y-32694918D01*
X150069444Y-32501045D01*
X150037719Y-32263568D01*
X150037867Y-32259754D01*
X150578479Y-32259754D01*
X150594364Y-32333481D01*
X150666934Y-32420230D01*
X150672023Y-32425209D01*
X150758454Y-32487579D01*
X150837531Y-32513283D01*
X150866168Y-32510889D01*
X150897818Y-32487777D01*
X150911881Y-32425096D01*
X150915075Y-32304776D01*
X150915075Y-32096268D01*
X150783722Y-32096268D01*
X150679775Y-32111705D01*
X150613125Y-32169597D01*
X150613004Y-32169823D01*
X150578479Y-32259754D01*
X150037867Y-32259754D01*
X150040964Y-32179978D01*
X150084887Y-31987032D01*
X150184619Y-31839220D01*
X150345841Y-31726641D01*
X150368021Y-31715645D01*
X150446519Y-31682865D01*
X150531543Y-31661307D01*
X150640409Y-31648708D01*
X150790432Y-31642807D01*
X150998929Y-31641343D01*
X151483732Y-31641343D01*
X151483732Y-32304776D01*
X151483732Y-32627015D01*
G37*
G36*
X151483697Y-34894104D02*
G01*
X151482095Y-35122520D01*
X151478386Y-35322661D01*
X151472953Y-35482642D01*
X151466182Y-35590576D01*
X151458458Y-35634577D01*
X151452173Y-35638809D01*
X151388043Y-35653794D01*
X151287861Y-35659850D01*
X151142538Y-35659850D01*
X151142538Y-35413432D01*
X151142538Y-35167015D01*
X150855293Y-35167015D01*
X150795608Y-35166819D01*
X150666522Y-35162153D01*
X150582358Y-35146409D01*
X150520225Y-35113215D01*
X150457233Y-35056199D01*
X150424131Y-35021897D01*
X150381417Y-34964305D01*
X150358100Y-34896177D01*
X150354956Y-34863731D01*
X150683828Y-34863731D01*
X150915075Y-34863731D01*
X151146321Y-34863731D01*
X151134952Y-34645746D01*
X151123582Y-34427761D01*
X150915075Y-34427761D01*
X150706567Y-34427761D01*
X150695198Y-34645746D01*
X150683828Y-34863731D01*
X150354956Y-34863731D01*
X150348370Y-34795759D01*
X150346418Y-34641298D01*
X150346458Y-34615149D01*
X150350174Y-34464853D01*
X150363387Y-34365314D01*
X150390976Y-34294616D01*
X150437822Y-34230845D01*
X150439211Y-34229230D01*
X150479575Y-34185638D01*
X150521928Y-34155779D01*
X150581032Y-34136563D01*
X150671650Y-34124905D01*
X150808545Y-34117716D01*
X151006479Y-34111908D01*
X151483732Y-34099338D01*
X151483732Y-34854321D01*
X151483724Y-34863731D01*
X151483697Y-34894104D01*
G37*
G36*
X148678358Y-34876078D02*
G01*
X148678281Y-34981369D01*
X148676953Y-35174872D01*
X148672677Y-35310891D01*
X148663803Y-35402207D01*
X148648677Y-35461599D01*
X148625647Y-35501845D01*
X148593060Y-35535726D01*
X148515231Y-35593804D01*
X148431941Y-35632713D01*
X148426868Y-35633892D01*
X148305952Y-35648951D01*
X148141371Y-35654580D01*
X147962889Y-35651287D01*
X147800267Y-35639580D01*
X147683270Y-35619963D01*
X147643667Y-35607764D01*
X147559887Y-35567129D01*
X147500127Y-35504784D01*
X147461022Y-35409975D01*
X147446588Y-35318656D01*
X147766101Y-35318656D01*
X148051633Y-35318656D01*
X148337164Y-35318656D01*
X148337164Y-34862070D01*
X148337164Y-34405484D01*
X148062314Y-34416622D01*
X147787463Y-34427761D01*
X147776782Y-34873209D01*
X147766101Y-35318656D01*
X147446588Y-35318656D01*
X147439206Y-35271948D01*
X147431317Y-35079950D01*
X147433988Y-34823226D01*
X147435899Y-34744332D01*
X147444612Y-34519927D01*
X147462861Y-34357729D01*
X147498716Y-34247208D01*
X147560246Y-34177833D01*
X147655522Y-34139074D01*
X147792612Y-34120402D01*
X147979587Y-34111286D01*
X148155209Y-34105964D01*
X148344742Y-34108889D01*
X148481915Y-34132085D01*
X148575185Y-34184809D01*
X148633008Y-34276314D01*
X148663840Y-34415858D01*
X148676138Y-34612694D01*
X148678240Y-34862070D01*
X148678358Y-34876078D01*
G37*
G36*
X142905314Y-34105931D02*
G01*
X142998794Y-34118871D01*
X143049209Y-34144326D01*
X143050250Y-34152936D01*
X143031097Y-34218066D01*
X142983133Y-34332073D01*
X142912160Y-34481819D01*
X142823984Y-34654164D01*
X142804127Y-34691729D01*
X142710697Y-34871077D01*
X142646821Y-35003348D01*
X142606895Y-35105193D01*
X142585315Y-35193265D01*
X142576477Y-35284218D01*
X142574776Y-35394704D01*
X142574776Y-35664210D01*
X142413657Y-35652553D01*
X142252538Y-35640895D01*
X142232801Y-35337612D01*
X142228702Y-35279816D01*
X142215109Y-35156242D01*
X142191520Y-35047390D01*
X142151326Y-34932954D01*
X142087917Y-34792632D01*
X141994683Y-34606120D01*
X141984572Y-34586207D01*
X141905368Y-34423596D01*
X141844049Y-34285990D01*
X141806517Y-34187369D01*
X141798672Y-34141717D01*
X141803781Y-34136165D01*
X141864805Y-34114357D01*
X141962856Y-34105522D01*
X141969460Y-34105527D01*
X142036309Y-34108935D01*
X142085393Y-34127726D01*
X142129362Y-34175140D01*
X142180861Y-34264420D01*
X142252538Y-34408806D01*
X142284347Y-34473063D01*
X142348051Y-34595455D01*
X142396544Y-34680064D01*
X142421247Y-34711499D01*
X142429165Y-34704409D01*
X142466420Y-34646352D01*
X142523978Y-34542494D01*
X142593121Y-34408216D01*
X142598432Y-34397573D01*
X142670011Y-34257290D01*
X142721731Y-34171123D01*
X142766287Y-34125892D01*
X142816375Y-34108418D01*
X142884689Y-34105522D01*
X142905314Y-34105931D01*
G37*
G36*
X145834066Y-35009685D02*
G01*
X145823212Y-35231502D01*
X145797773Y-35393015D01*
X145754435Y-35504536D01*
X145689886Y-35576379D01*
X145600812Y-35618858D01*
X145570794Y-35625911D01*
X145453080Y-35639993D01*
X145295400Y-35647622D01*
X145123323Y-35647276D01*
X144981984Y-35642269D01*
X144860887Y-35632535D01*
X144781006Y-35614419D01*
X144723217Y-35583158D01*
X144668397Y-35533991D01*
X144638011Y-35502311D01*
X144603351Y-35454871D01*
X144580788Y-35395362D01*
X144566940Y-35307850D01*
X144558423Y-35176400D01*
X144551854Y-34985078D01*
X144548758Y-34852720D01*
X144551678Y-34601986D01*
X144573599Y-34413831D01*
X144576537Y-34405484D01*
X144925224Y-34405484D01*
X144925224Y-34862070D01*
X144925224Y-35318656D01*
X145191787Y-35318656D01*
X145328442Y-35314754D01*
X145434268Y-35298569D01*
X145477518Y-35268705D01*
X145482757Y-35235524D01*
X145487455Y-35136328D01*
X145488586Y-34992756D01*
X145485806Y-34823258D01*
X145474926Y-34427761D01*
X145200075Y-34416622D01*
X144925224Y-34405484D01*
X144576537Y-34405484D01*
X144620873Y-34279508D01*
X144699856Y-34190264D01*
X144816902Y-34137352D01*
X144978364Y-34112021D01*
X145190597Y-34105522D01*
X145209923Y-34105552D01*
X145421920Y-34112848D01*
X145580204Y-34139453D01*
X145692464Y-34194723D01*
X145766391Y-34288014D01*
X145809676Y-34428680D01*
X145830007Y-34626077D01*
X145835075Y-34889561D01*
X145834208Y-34992756D01*
X145834066Y-35009685D01*
G37*
G36*
X149762820Y-33007678D02*
G01*
X149828569Y-33214094D01*
X149879850Y-33379877D01*
X149913400Y-33494625D01*
X149925956Y-33547938D01*
X149926077Y-33558892D01*
X149914437Y-33588629D01*
X149872387Y-33604217D01*
X149784851Y-33608620D01*
X149636753Y-33604803D01*
X149344103Y-33593731D01*
X149293355Y-33413656D01*
X149242608Y-33233582D01*
X148942675Y-33233582D01*
X148642742Y-33233582D01*
X148590349Y-33413656D01*
X148537956Y-33593731D01*
X148248008Y-33604803D01*
X148171419Y-33607113D01*
X148045263Y-33605226D01*
X147977955Y-33592134D01*
X147958060Y-33566319D01*
X147968157Y-33523645D01*
X147999485Y-33417703D01*
X148048921Y-33259296D01*
X148113284Y-33058453D01*
X148189396Y-32825203D01*
X148222234Y-32726074D01*
X148766245Y-32726074D01*
X148769006Y-32756093D01*
X148819989Y-32773680D01*
X148933618Y-32778656D01*
X149121168Y-32778656D01*
X149041927Y-32437619D01*
X149022485Y-32356303D01*
X148987781Y-32222914D01*
X148959962Y-32130917D01*
X148943732Y-32096641D01*
X148940890Y-32098816D01*
X148920573Y-32148260D01*
X148890336Y-32249599D01*
X148855600Y-32385096D01*
X148849086Y-32412115D01*
X148813927Y-32553524D01*
X148784370Y-32665592D01*
X148766245Y-32726074D01*
X148222234Y-32726074D01*
X148274076Y-32569575D01*
X148590092Y-31622388D01*
X148946986Y-31622388D01*
X149303881Y-31622388D01*
X149613195Y-32551194D01*
X149685868Y-32771027D01*
X149688349Y-32778656D01*
X149762820Y-33007678D01*
G37*
G36*
X137359794Y-34111511D02*
G01*
X137425843Y-34113727D01*
X137610328Y-34123833D01*
X137743231Y-34146135D01*
X137833387Y-34191234D01*
X137889630Y-34269734D01*
X137920796Y-34392235D01*
X137935718Y-34569340D01*
X137943233Y-34811650D01*
X137943464Y-34821328D01*
X137945936Y-35074836D01*
X137937852Y-35264415D01*
X137916424Y-35401196D01*
X137878863Y-35496309D01*
X137822379Y-35560886D01*
X137744185Y-35606059D01*
X137730994Y-35611206D01*
X137611623Y-35636321D01*
X137426027Y-35652283D01*
X137182015Y-35658366D01*
X136736567Y-35659850D01*
X136736567Y-35185970D01*
X136736567Y-34712089D01*
X137039851Y-34712089D01*
X137082299Y-34712368D01*
X137215735Y-34717358D01*
X137309703Y-34727305D01*
X137346035Y-34740522D01*
X137349479Y-34765534D01*
X137362235Y-34839378D01*
X137364430Y-34931313D01*
X137315655Y-34995288D01*
X137206392Y-35015373D01*
X137170314Y-35015698D01*
X137106543Y-35026749D01*
X137081869Y-35069907D01*
X137077761Y-35167015D01*
X137077761Y-35318656D01*
X137344338Y-35318656D01*
X137610914Y-35318656D01*
X137600233Y-34873209D01*
X137589552Y-34427761D01*
X137182015Y-34417001D01*
X137060924Y-34413647D01*
X136922220Y-34407749D01*
X136837567Y-34398183D01*
X136793622Y-34381563D01*
X136777040Y-34354504D01*
X136774478Y-34313621D01*
X136774481Y-34312292D01*
X136792694Y-34225368D01*
X136852018Y-34164699D01*
X136960766Y-34127414D01*
X137127253Y-34110641D01*
X137359794Y-34111511D01*
G37*
G36*
X150081045Y-34857413D02*
G01*
X150081014Y-34894574D01*
X150079431Y-35122737D01*
X150075728Y-35322731D01*
X150070292Y-35482644D01*
X150063511Y-35590564D01*
X150055771Y-35634577D01*
X150049486Y-35638809D01*
X149985357Y-35653794D01*
X149885174Y-35659850D01*
X149739851Y-35659850D01*
X149739851Y-35394477D01*
X149739851Y-35129104D01*
X149629217Y-35129104D01*
X149620746Y-35129193D01*
X149561262Y-35139444D01*
X149509139Y-35176359D01*
X149450595Y-35253643D01*
X149371845Y-35385000D01*
X149312301Y-35485001D01*
X149243029Y-35582229D01*
X149183263Y-35633665D01*
X149120037Y-35653112D01*
X149063794Y-35657246D01*
X148978502Y-35642191D01*
X148945648Y-35588101D01*
X148963251Y-35488024D01*
X149029329Y-35335005D01*
X149045106Y-35302881D01*
X149098979Y-35186966D01*
X149121486Y-35116874D01*
X149116032Y-35075137D01*
X149086026Y-35044284D01*
X149019443Y-34967868D01*
X148965515Y-34831247D01*
X148943993Y-34668165D01*
X148953421Y-34498218D01*
X148970866Y-34427761D01*
X149303881Y-34427761D01*
X149303881Y-34617313D01*
X149303881Y-34806865D01*
X149521866Y-34818235D01*
X149739851Y-34829604D01*
X149739851Y-34617313D01*
X149739851Y-34405022D01*
X149521866Y-34416391D01*
X149303881Y-34427761D01*
X148970866Y-34427761D01*
X148992346Y-34341008D01*
X149059315Y-34216133D01*
X149152873Y-34143191D01*
X149204508Y-34131448D01*
X149325461Y-34118054D01*
X149486335Y-34108907D01*
X149666498Y-34105522D01*
X150081045Y-34105522D01*
X150081045Y-34617313D01*
X150081045Y-34857413D01*
G37*
G36*
X143181343Y-32627015D02*
G01*
X143181343Y-33612686D01*
X142897015Y-33612686D01*
X142612687Y-33612686D01*
X142612687Y-33252537D01*
X142610960Y-33105513D01*
X142603124Y-32980361D01*
X142587683Y-32912694D01*
X142563247Y-32892388D01*
X142534754Y-32913365D01*
X142474888Y-32988884D01*
X142396572Y-33106480D01*
X142309403Y-33252537D01*
X142104999Y-33612686D01*
X141787949Y-33612686D01*
X141663911Y-33611291D01*
X141554042Y-33604106D01*
X141502396Y-33589324D01*
X141498925Y-33565298D01*
X141499007Y-33565161D01*
X141530351Y-33516111D01*
X141594510Y-33418279D01*
X141682178Y-33285783D01*
X141784048Y-33132743D01*
X142041144Y-32747575D01*
X141944265Y-32684097D01*
X141858812Y-32603010D01*
X141774253Y-32457412D01*
X141726406Y-32294250D01*
X142282677Y-32294250D01*
X142347314Y-32399552D01*
X142419849Y-32449006D01*
X142517911Y-32475373D01*
X142565244Y-32471957D01*
X142597223Y-32448461D01*
X142610227Y-32386282D01*
X142612687Y-32266865D01*
X142610716Y-32147783D01*
X142598178Y-32085664D01*
X142565139Y-32062075D01*
X142501663Y-32058358D01*
X142452800Y-32062070D01*
X142343506Y-32107635D01*
X142284103Y-32190986D01*
X142282677Y-32294250D01*
X141726406Y-32294250D01*
X141725043Y-32289601D01*
X141722740Y-32128564D01*
X141733882Y-32079379D01*
X141816018Y-31910021D01*
X141948848Y-31771484D01*
X142112951Y-31685799D01*
X142197544Y-31669772D01*
X142344442Y-31655027D01*
X142526219Y-31645026D01*
X142721339Y-31641343D01*
X143181343Y-31641343D01*
X143181343Y-32266865D01*
X143181343Y-32627015D01*
G37*
G36*
X145723104Y-31859328D02*
G01*
X145745351Y-31965340D01*
X145781668Y-32135650D01*
X145824404Y-32334137D01*
X145868296Y-32536250D01*
X145968441Y-32995188D01*
X146115346Y-32318265D01*
X146262252Y-31641343D01*
X146519989Y-31641343D01*
X146612649Y-31642450D01*
X146717674Y-31650994D01*
X146774052Y-31671398D01*
X146798685Y-31707686D01*
X146805313Y-31731869D01*
X146828289Y-31825201D01*
X146862528Y-31970100D01*
X146904634Y-32152120D01*
X146951213Y-32356813D01*
X146997070Y-32556837D01*
X147045572Y-32757453D01*
X147081470Y-32889517D01*
X147105813Y-32956373D01*
X147119651Y-32961364D01*
X147124030Y-32907832D01*
X147126894Y-32881093D01*
X147142927Y-32786962D01*
X147170069Y-32645058D01*
X147204899Y-32471761D01*
X147243997Y-32283452D01*
X147283943Y-32096509D01*
X147321315Y-31927314D01*
X147352693Y-31792246D01*
X147374657Y-31707686D01*
X147387452Y-31682099D01*
X147429623Y-31656842D01*
X147514011Y-31644564D01*
X147657331Y-31641343D01*
X147665730Y-31641353D01*
X147794226Y-31644308D01*
X147885457Y-31651504D01*
X147920149Y-31661465D01*
X147920084Y-31662258D01*
X147909881Y-31709015D01*
X147884365Y-31816234D01*
X147846533Y-31971879D01*
X147799382Y-32163908D01*
X147745908Y-32380283D01*
X147689109Y-32608965D01*
X147631980Y-32837914D01*
X147577518Y-33055092D01*
X147528720Y-33248458D01*
X147488582Y-33405974D01*
X147460102Y-33515601D01*
X147446275Y-33565298D01*
X147445299Y-33567611D01*
X147399571Y-33593174D01*
X147289677Y-33607938D01*
X147110070Y-33612686D01*
X146790447Y-33612686D01*
X146729558Y-33337835D01*
X146726771Y-33325246D01*
X146686914Y-33143967D01*
X146641313Y-32934882D01*
X146599293Y-32740746D01*
X146529918Y-32418507D01*
X146462974Y-32721791D01*
X146421795Y-32907691D01*
X146374140Y-33121752D01*
X146332148Y-33309403D01*
X146268266Y-33593731D01*
X145942317Y-33604621D01*
X145616368Y-33615510D01*
X145384043Y-32656859D01*
X145327068Y-32420830D01*
X145270303Y-32183604D01*
X145222074Y-31979835D01*
X145184740Y-31819574D01*
X145160663Y-31712870D01*
X145152203Y-31669776D01*
X145152346Y-31668885D01*
X145191109Y-31654975D01*
X145285225Y-31645099D01*
X145415372Y-31641343D01*
X145678058Y-31641343D01*
X145723104Y-31859328D01*
G37*
G36*
X135375093Y-31603921D02*
G01*
X135508980Y-31609927D01*
X135602191Y-31621338D01*
X135637164Y-31636325D01*
X135636099Y-31642110D01*
X135610612Y-31701352D01*
X135558080Y-31803420D01*
X135487749Y-31930131D01*
X135448458Y-32001022D01*
X135275085Y-32390240D01*
X135163134Y-32791192D01*
X135115506Y-33190355D01*
X135135101Y-33574207D01*
X135192504Y-33877811D01*
X135295506Y-34216873D01*
X135441697Y-34537608D01*
X135637718Y-34852027D01*
X135890212Y-35172138D01*
X136205821Y-35509949D01*
X136535976Y-35819448D01*
X136989527Y-36183407D01*
X137489906Y-36520990D01*
X138042760Y-36835353D01*
X138653742Y-37129655D01*
X139328501Y-37407052D01*
X140072687Y-37670702D01*
X140425519Y-37783710D01*
X141141098Y-37990755D01*
X141867360Y-38170243D01*
X142617031Y-38324667D01*
X143402834Y-38456522D01*
X144237492Y-38568300D01*
X145133732Y-38662495D01*
X145135926Y-38662697D01*
X145337736Y-38676765D01*
X145603504Y-38688485D01*
X145921584Y-38697855D01*
X146280330Y-38704877D01*
X146668099Y-38709551D01*
X147073244Y-38711876D01*
X147484120Y-38711854D01*
X147889083Y-38709484D01*
X148276487Y-38704766D01*
X148634687Y-38697701D01*
X148952038Y-38688289D01*
X149216895Y-38676529D01*
X149417612Y-38662423D01*
X150076352Y-38595131D01*
X151109968Y-38461559D01*
X152083711Y-38298563D01*
X153004413Y-38104642D01*
X153878903Y-37878295D01*
X154714015Y-37618020D01*
X155516577Y-37322318D01*
X155524374Y-37319210D01*
X155946978Y-37139616D01*
X156376572Y-36936877D01*
X156797132Y-36719633D01*
X157192637Y-36496522D01*
X157547064Y-36276182D01*
X157844391Y-36067253D01*
X157871711Y-36046610D01*
X157982772Y-35965604D01*
X158066959Y-35908759D01*
X158107819Y-35887313D01*
X158111415Y-35893965D01*
X158079841Y-35939266D01*
X158006692Y-36019014D01*
X157902295Y-36123292D01*
X157776979Y-36242182D01*
X157641073Y-36365765D01*
X157504906Y-36484123D01*
X157378806Y-36587339D01*
X157364665Y-36598412D01*
X156795004Y-37002961D01*
X156158071Y-37380625D01*
X155457832Y-37730216D01*
X154698253Y-38050551D01*
X153883300Y-38340444D01*
X153016940Y-38598709D01*
X152103138Y-38824163D01*
X151145860Y-39015618D01*
X150149073Y-39171892D01*
X149116743Y-39291797D01*
X148052836Y-39374150D01*
X147931756Y-39380616D01*
X147453997Y-39396377D01*
X146925210Y-39400799D01*
X146363472Y-39394506D01*
X145786858Y-39378119D01*
X145213442Y-39352261D01*
X144661299Y-39317553D01*
X144148505Y-39274618D01*
X143693135Y-39224078D01*
X142848857Y-39098677D01*
X141885225Y-38913202D01*
X140953978Y-38687948D01*
X140060668Y-38424894D01*
X139210845Y-38126015D01*
X138410061Y-37793289D01*
X137663869Y-37428693D01*
X136977819Y-37034203D01*
X136357463Y-36611797D01*
X136276228Y-36549316D01*
X136071853Y-36378847D01*
X135850790Y-36179695D01*
X135628416Y-35966818D01*
X135420105Y-35755174D01*
X135241233Y-35559723D01*
X135107176Y-35395422D01*
X135077451Y-35354860D01*
X134798526Y-34916777D01*
X134593374Y-34474900D01*
X134462494Y-34030879D01*
X134406385Y-33586363D01*
X134425546Y-33143001D01*
X134437681Y-33057543D01*
X134517204Y-32673682D01*
X134632527Y-32298063D01*
X134773935Y-31963582D01*
X134823871Y-31864552D01*
X134895291Y-31738292D01*
X134962327Y-31661146D01*
X135043345Y-31621019D01*
X135156714Y-31605813D01*
X135320801Y-31603432D01*
X135375093Y-31603921D01*
G37*
G04 #@! TD*
%LPC*%
G04 #@! TO.C,REF\u002A\u002A*
G36*
X156666922Y-32713047D02*
G01*
X156709087Y-32798081D01*
X156735059Y-32925156D01*
X156744020Y-33075679D01*
X156735157Y-33231054D01*
X156707652Y-33372689D01*
X156660691Y-33481988D01*
X156625244Y-33531711D01*
X156587943Y-33554909D01*
X156551289Y-33523727D01*
X156547913Y-33519633D01*
X156478810Y-33465933D01*
X156380409Y-33416047D01*
X156253952Y-33365797D01*
X156339517Y-33257018D01*
X156384999Y-33186721D01*
X156450472Y-33058002D01*
X156509153Y-32916060D01*
X156554619Y-32802714D01*
X156597364Y-32718679D01*
X156625865Y-32688134D01*
X156666922Y-32713047D01*
G37*
G36*
X153705740Y-31462357D02*
G01*
X153700964Y-31500912D01*
X153668206Y-31588049D01*
X153614401Y-31703850D01*
X153563637Y-31814053D01*
X153509282Y-31954474D01*
X153478364Y-32063306D01*
X153453339Y-32200941D01*
X153313504Y-32129649D01*
X153283961Y-32115112D01*
X153187691Y-32074622D01*
X153124820Y-32058358D01*
X153104645Y-32053762D01*
X153075970Y-32007180D01*
X153087813Y-31964656D01*
X153140156Y-31871766D01*
X153220109Y-31761104D01*
X153312033Y-31653718D01*
X153400288Y-31570660D01*
X153452331Y-31534231D01*
X153557018Y-31480577D01*
X153649746Y-31453691D01*
X153705740Y-31462357D01*
G37*
G36*
X156287098Y-30831596D02*
G01*
X156326922Y-30914827D01*
X156353292Y-31040077D01*
X156364967Y-31189358D01*
X156360704Y-31344680D01*
X156339262Y-31488054D01*
X156299398Y-31601491D01*
X156276342Y-31641127D01*
X156240956Y-31663024D01*
X156188103Y-31625533D01*
X156139485Y-31588673D01*
X156084634Y-31565522D01*
X156050972Y-31556589D01*
X155981298Y-31517131D01*
X155953888Y-31494506D01*
X155938171Y-31458430D01*
X155955514Y-31400562D01*
X156008647Y-31299146D01*
X156033304Y-31252073D01*
X156100213Y-31104194D01*
X156149402Y-30968432D01*
X156164450Y-30923580D01*
X156205894Y-30840331D01*
X156244553Y-30807313D01*
X156287098Y-30831596D01*
G37*
G36*
X155302263Y-30421537D02*
G01*
X155309386Y-30466246D01*
X155274706Y-30560865D01*
X155198955Y-30712537D01*
X155147144Y-30820381D01*
X155102427Y-30936047D01*
X155085224Y-31013352D01*
X155080227Y-31068707D01*
X155059950Y-31123233D01*
X155048987Y-31134229D01*
X155027493Y-31145262D01*
X154989539Y-31132925D01*
X154909483Y-31091875D01*
X154814491Y-31052197D01*
X154734552Y-31035009D01*
X154734383Y-31035009D01*
X154685284Y-31026549D01*
X154674413Y-30993571D01*
X154703983Y-30923875D01*
X154776204Y-30805258D01*
X154818565Y-30741239D01*
X154923329Y-30609014D01*
X155033253Y-30518393D01*
X155171910Y-30448101D01*
X155252607Y-30419594D01*
X155302263Y-30421537D01*
G37*
G36*
X153190000Y-32255416D02*
G01*
X153280826Y-32331453D01*
X153304090Y-32356112D01*
X153415783Y-32529590D01*
X153475305Y-32729014D01*
X153473734Y-32926857D01*
X153456819Y-32999869D01*
X153412877Y-33151871D01*
X153354469Y-33331751D01*
X153290253Y-33514266D01*
X153228885Y-33674175D01*
X153179022Y-33786235D01*
X153157855Y-33824383D01*
X153028224Y-33978016D01*
X152862059Y-34066542D01*
X152835561Y-34074251D01*
X152707200Y-34098493D01*
X152596686Y-34084180D01*
X152465044Y-34027477D01*
X152345871Y-33941583D01*
X152241459Y-33792711D01*
X152185056Y-33608351D01*
X152174738Y-33399721D01*
X152208577Y-33178042D01*
X152284648Y-32954533D01*
X152401024Y-32740414D01*
X152555780Y-32546906D01*
X152746988Y-32385227D01*
X152875459Y-32302312D01*
X153003168Y-32239249D01*
X153102731Y-32224149D01*
X153190000Y-32255416D01*
G37*
G36*
X154771164Y-31257417D02*
G01*
X154905149Y-31329464D01*
X154918443Y-31343822D01*
X154958049Y-31443564D01*
X154973769Y-31597760D01*
X154967550Y-31792978D01*
X154941336Y-32015786D01*
X154897076Y-32252755D01*
X154836716Y-32490450D01*
X154762201Y-32715442D01*
X154675480Y-32914298D01*
X154675116Y-32915013D01*
X154546218Y-33122181D01*
X154392420Y-33296507D01*
X154232239Y-33416989D01*
X154232190Y-33417016D01*
X154143310Y-33453314D01*
X154055912Y-33450893D01*
X153937215Y-33408848D01*
X153923881Y-33402980D01*
X153745348Y-33283800D01*
X153620302Y-33116208D01*
X153551272Y-32907602D01*
X153540787Y-32665385D01*
X153591377Y-32396955D01*
X153665690Y-32188732D01*
X153787712Y-31945630D01*
X153934524Y-31728794D01*
X154098434Y-31544476D01*
X154271747Y-31398928D01*
X154446769Y-31298401D01*
X154615806Y-31249147D01*
X154771164Y-31257417D01*
G37*
G36*
X155966902Y-31735773D02*
G01*
X156072476Y-31813454D01*
X156131763Y-31877617D01*
X156200100Y-31990196D01*
X156240428Y-32129904D01*
X156256541Y-32312356D01*
X156252235Y-32553167D01*
X156247973Y-32633412D01*
X156233506Y-32800318D01*
X156208717Y-32931626D01*
X156166870Y-33056339D01*
X156101230Y-33203463D01*
X156037541Y-33329856D01*
X155894750Y-33556727D01*
X155740967Y-33722302D01*
X155567789Y-33836550D01*
X155419865Y-33894603D01*
X155248707Y-33910942D01*
X155074529Y-33864336D01*
X154923577Y-33771222D01*
X154826274Y-33638229D01*
X154786517Y-33464695D01*
X154804180Y-33248267D01*
X154879138Y-32986595D01*
X155011266Y-32677328D01*
X155023047Y-32653298D01*
X155123496Y-32469898D01*
X155240940Y-32282303D01*
X155352350Y-32127626D01*
X155468621Y-31988317D01*
X155618939Y-31834431D01*
X155747309Y-31743131D01*
X155860904Y-31711289D01*
X155966902Y-31735773D01*
G37*
G36*
X156328505Y-33588453D02*
G01*
X156406591Y-33609816D01*
X156460962Y-33662048D01*
X156518935Y-33764328D01*
X156535897Y-33798201D01*
X156572297Y-33887723D01*
X156591546Y-33981350D01*
X156597051Y-34102882D01*
X156592222Y-34276119D01*
X156584182Y-34414457D01*
X156564906Y-34567984D01*
X156531419Y-34691210D01*
X156477998Y-34810939D01*
X156367557Y-35000521D01*
X156210709Y-35191744D01*
X156037874Y-35318429D01*
X155955372Y-35354759D01*
X155763159Y-35387436D01*
X155580942Y-35351439D01*
X155422458Y-35251022D01*
X155301445Y-35090438D01*
X155276355Y-35033392D01*
X155251911Y-34906722D01*
X155267806Y-34760216D01*
X155326335Y-34580714D01*
X155429795Y-34355056D01*
X155506718Y-34203352D01*
X155596761Y-34036080D01*
X155672335Y-33914695D01*
X155743303Y-33825549D01*
X155819527Y-33754993D01*
X155910871Y-33689382D01*
X156031557Y-33618558D01*
X156138262Y-33585105D01*
X156260046Y-33582547D01*
X156328505Y-33588453D01*
G37*
G36*
X154376553Y-33867436D02*
G01*
X154497558Y-33965390D01*
X154603344Y-34132019D01*
X154701879Y-34370895D01*
X154752758Y-34500266D01*
X154842202Y-34698800D01*
X154947375Y-34910862D01*
X155054721Y-35108129D01*
X155293732Y-35523123D01*
X155293732Y-35834991D01*
X155290710Y-35961655D01*
X155267154Y-36133831D01*
X155212259Y-36260124D01*
X155116591Y-36358391D01*
X154970718Y-36446492D01*
X154916178Y-36472437D01*
X154805275Y-36514662D01*
X154726520Y-36530958D01*
X154624747Y-36512047D01*
X154471207Y-36446158D01*
X154305258Y-36343802D01*
X154147626Y-36216247D01*
X153945490Y-36043338D01*
X153714201Y-35890188D01*
X153469359Y-35781736D01*
X153191022Y-35709447D01*
X152859249Y-35664785D01*
X152695708Y-35644956D01*
X152503582Y-35606112D01*
X152368592Y-35557748D01*
X152323899Y-35532126D01*
X152179172Y-35400445D01*
X152090491Y-35233614D01*
X152061065Y-35047628D01*
X152094105Y-34858480D01*
X152192822Y-34682164D01*
X152261165Y-34605415D01*
X152401507Y-34488500D01*
X152578494Y-34389103D01*
X152805168Y-34300481D01*
X153094571Y-34215888D01*
X153261255Y-34168819D01*
X153471388Y-34101010D01*
X153661428Y-34031185D01*
X153804445Y-33968718D01*
X153842530Y-33949913D01*
X154057007Y-33863269D01*
X154232359Y-33834586D01*
X154376553Y-33867436D01*
G37*
G04 #@! TD*
D18*
G04 #@! TO.C,H1*
X114600000Y-30000000D03*
X115302944Y-28302944D03*
X115302944Y-31697056D03*
X117000000Y-27600000D03*
D19*
X117000000Y-30000000D03*
D18*
X117000000Y-32400000D03*
X118697056Y-28302944D03*
X118697056Y-31697056D03*
X119400000Y-30000000D03*
G04 #@! TD*
G04 #@! TO.C,H3*
X114600000Y-139000000D03*
X115302944Y-137302944D03*
X115302944Y-140697056D03*
X117000000Y-136600000D03*
D19*
X117000000Y-139000000D03*
D18*
X117000000Y-141400000D03*
X118697056Y-137302944D03*
X118697056Y-140697056D03*
X119400000Y-139000000D03*
G04 #@! TD*
G04 #@! TO.C,H2*
X174600000Y-30000000D03*
X175302944Y-28302944D03*
X175302944Y-31697056D03*
X177000000Y-27600000D03*
D19*
X177000000Y-30000000D03*
D18*
X177000000Y-32400000D03*
X178697056Y-28302944D03*
X178697056Y-31697056D03*
X179400000Y-30000000D03*
G04 #@! TD*
G04 #@! TO.C,H4*
X174600000Y-139000000D03*
X175302944Y-137302944D03*
X175302944Y-140697056D03*
X177000000Y-136600000D03*
D19*
X177000000Y-139000000D03*
D18*
X177000000Y-141400000D03*
X178697056Y-137302944D03*
X178697056Y-140697056D03*
X179400000Y-139000000D03*
G04 #@! TD*
D20*
G04 #@! TO.C,J1*
X135230000Y-133180000D03*
D21*
X137770000Y-133180000D03*
X140310000Y-133180000D03*
X142850000Y-133180000D03*
X145390000Y-133180000D03*
X147930000Y-133180000D03*
X150470000Y-133180000D03*
X153010000Y-133180000D03*
G04 #@! TD*
D20*
G04 #@! TO.C,J2*
X141890000Y-137220000D03*
D21*
X141890000Y-139760000D03*
X144430000Y-137220000D03*
X144430000Y-139760000D03*
X146970000Y-137220000D03*
X146970000Y-139760000D03*
X149510000Y-137220000D03*
X149510000Y-139760000D03*
G04 #@! TD*
%LPD*%
M02*
